<svg xmlns="http://www.w3.org/2000/svg" xmlns:xlink="http://www.w3.org/1999/xlink" width="90" zoomAndPan="magnify" viewBox="0 0 67.5 67.499996" height="90" preserveAspectRatio="xMidYMid meet" version="1.0"><defs><clipPath id="id1"><path d="M 1.683594 0.601562 L 66.183594 0.601562 L 66.183594 66.601562 L 1.683594 66.601562 Z M 1.683594 0.601562 " clip-rule="nonzero"/></clipPath><clipPath id="id2"><path d="M 5.984375 6.289062 L 61.882812 6.289062 L 61.882812 60.910156 L 5.984375 60.910156 Z M 5.984375 6.289062 " clip-rule="nonzero"/></clipPath><clipPath id="id3"><path d="M 5.984375 57.363281 L 5.984375 9.835938 C 5.984375 8.855469 6.335938 8.019531 7.035156 7.328125 C 7.734375 6.636719 8.578125 6.289062 9.566406 6.289062 L 58.300781 6.289062 C 59.289062 6.289062 60.136719 6.636719 60.835938 7.328125 C 61.535156 8.019531 61.882812 8.855469 61.882812 9.835938 L 61.882812 57.363281 C 61.882812 58.34375 61.535156 59.179688 60.835938 59.871094 C 60.136719 60.5625 59.289062 60.910156 58.300781 60.910156 L 9.566406 60.910156 C 8.578125 60.910156 7.734375 60.5625 7.035156 59.871094 C 6.335938 59.179688 5.984375 58.34375 5.984375 57.363281 Z M 5.984375 57.363281 " clip-rule="nonzero"/></clipPath><clipPath id="id4"><path d="M 15 15 L 53 15 L 53 51 L 15 51 Z M 15 15 " clip-rule="nonzero"/></clipPath><clipPath id="id5"><path d="M 5.984375 57.363281 L 5.984375 9.835938 C 5.984375 8.855469 6.335938 8.019531 7.035156 7.328125 C 7.734375 6.636719 8.578125 6.289062 9.566406 6.289062 L 58.300781 6.289062 C 59.289062 6.289062 60.136719 6.636719 60.835938 7.328125 C 61.535156 8.019531 61.882812 8.855469 61.882812 9.835938 L 61.882812 57.363281 C 61.882812 58.34375 61.535156 59.179688 60.835938 59.871094 C 60.136719 60.5625 59.289062 60.910156 58.300781 60.910156 L 9.566406 60.910156 C 8.578125 60.910156 7.734375 60.5625 7.035156 59.871094 C 6.335938 59.179688 5.984375 58.34375 5.984375 57.363281 Z M 5.984375 57.363281 " clip-rule="nonzero"/></clipPath><clipPath id="id6"><path d="M 5.984375 6.289062 L 61.882812 6.289062 L 61.882812 60.910156 L 5.984375 60.910156 Z M 5.984375 6.289062 " clip-rule="nonzero"/></clipPath><clipPath id="id7"><path d="M 5.984375 57.363281 L 5.984375 9.835938 C 5.984375 8.855469 6.335938 8.019531 7.035156 7.328125 C 7.734375 6.636719 8.578125 6.289062 9.566406 6.289062 L 58.300781 6.289062 C 59.289062 6.289062 60.136719 6.636719 60.835938 7.328125 C 61.535156 8.019531 61.882812 8.855469 61.882812 9.835938 L 61.882812 57.363281 C 61.882812 58.34375 61.535156 59.179688 60.835938 59.871094 C 60.136719 60.5625 59.289062 60.910156 58.300781 60.910156 L 9.566406 60.910156 C 8.578125 60.910156 7.734375 60.5625 7.035156 59.871094 C 6.335938 59.179688 5.984375 58.34375 5.984375 57.363281 Z M 5.984375 57.363281 " clip-rule="nonzero"/></clipPath><clipPath id="id8"><path d="M 6 8 L 60 8 L 60 60.910156 L 6 60.910156 Z M 6 8 " clip-rule="nonzero"/></clipPath><clipPath id="id9"><path d="M 5.984375 57.363281 L 5.984375 9.835938 C 5.984375 8.855469 6.335938 8.019531 7.035156 7.328125 C 7.734375 6.636719 8.578125 6.289062 9.566406 6.289062 L 58.300781 6.289062 C 59.289062 6.289062 60.136719 6.636719 60.835938 7.328125 C 61.535156 8.019531 61.882812 8.855469 61.882812 9.835938 L 61.882812 57.363281 C 61.882812 58.34375 61.535156 59.179688 60.835938 59.871094 C 60.136719 60.5625 59.289062 60.910156 58.300781 60.910156 L 9.566406 60.910156 C 8.578125 60.910156 7.734375 60.5625 7.035156 59.871094 C 6.335938 59.179688 5.984375 58.34375 5.984375 57.363281 Z M 5.984375 57.363281 " clip-rule="nonzero"/></clipPath><clipPath id="id10"><path d="M 32 12 L 55 12 L 55 57 L 32 57 Z M 32 12 " clip-rule="nonzero"/></clipPath><clipPath id="id11"><path d="M 5.984375 57.363281 L 5.984375 9.835938 C 5.984375 8.855469 6.335938 8.019531 7.035156 7.328125 C 7.734375 6.636719 8.578125 6.289062 9.566406 6.289062 L 58.300781 6.289062 C 59.289062 6.289062 60.136719 6.636719 60.835938 7.328125 C 61.535156 8.019531 61.882812 8.855469 61.882812 9.835938 L 61.882812 57.363281 C 61.882812 58.34375 61.535156 59.179688 60.835938 59.871094 C 60.136719 60.5625 59.289062 60.910156 58.300781 60.910156 L 9.566406 60.910156 C 8.578125 60.910156 7.734375 60.5625 7.035156 59.871094 C 6.335938 59.179688 5.984375 58.34375 5.984375 57.363281 Z M 5.984375 57.363281 " clip-rule="nonzero"/></clipPath><clipPath id="id12"><path d="M 16 18 L 33 18 L 33 36 L 16 36 Z M 16 18 " clip-rule="nonzero"/></clipPath><clipPath id="id13"><path d="M 5.984375 57.363281 L 5.984375 9.835938 C 5.984375 8.855469 6.335938 8.019531 7.035156 7.328125 C 7.734375 6.636719 8.578125 6.289062 9.566406 6.289062 L 58.300781 6.289062 C 59.289062 6.289062 60.136719 6.636719 60.835938 7.328125 C 61.535156 8.019531 61.882812 8.855469 61.882812 9.835938 L 61.882812 57.363281 C 61.882812 58.34375 61.535156 59.179688 60.835938 59.871094 C 60.136719 60.5625 59.289062 60.910156 58.300781 60.910156 L 9.566406 60.910156 C 8.578125 60.910156 7.734375 60.5625 7.035156 59.871094 C 6.335938 59.179688 5.984375 58.34375 5.984375 57.363281 Z M 5.984375 57.363281 " clip-rule="nonzero"/></clipPath><clipPath id="id14"><path d="M 18 38 L 33 38 L 33 51 L 18 51 Z M 18 38 " clip-rule="nonzero"/></clipPath><clipPath id="id15"><path d="M 5.984375 57.363281 L 5.984375 9.835938 C 5.984375 8.855469 6.335938 8.019531 7.035156 7.328125 C 7.734375 6.636719 8.578125 6.289062 9.566406 6.289062 L 58.300781 6.289062 C 59.289062 6.289062 60.136719 6.636719 60.835938 7.328125 C 61.535156 8.019531 61.882812 8.855469 61.882812 9.835938 L 61.882812 57.363281 C 61.882812 58.34375 61.535156 59.179688 60.835938 59.871094 C 60.136719 60.5625 59.289062 60.910156 58.300781 60.910156 L 9.566406 60.910156 C 8.578125 60.910156 7.734375 60.5625 7.035156 59.871094 C 6.335938 59.179688 5.984375 58.34375 5.984375 57.363281 Z M 5.984375 57.363281 " clip-rule="nonzero"/></clipPath><clipPath id="id16"><path d="M 32 29 L 49 29 L 49 51 L 32 51 Z M 32 29 " clip-rule="nonzero"/></clipPath><clipPath id="id17"><path d="M 5.984375 57.363281 L 5.984375 9.835938 C 5.984375 8.855469 6.335938 8.019531 7.035156 7.328125 C 7.734375 6.636719 8.578125 6.289062 9.566406 6.289062 L 58.300781 6.289062 C 59.289062 6.289062 60.136719 6.636719 60.835938 7.328125 C 61.535156 8.019531 61.882812 8.855469 61.882812 9.835938 L 61.882812 57.363281 C 61.882812 58.34375 61.535156 59.179688 60.835938 59.871094 C 60.136719 60.5625 59.289062 60.910156 58.300781 60.910156 L 9.566406 60.910156 C 8.578125 60.910156 7.734375 60.5625 7.035156 59.871094 C 6.335938 59.179688 5.984375 58.34375 5.984375 57.363281 Z M 5.984375 57.363281 " clip-rule="nonzero"/></clipPath><clipPath id="id18"><path d="M 32 18 L 50 18 L 50 24 L 32 24 Z M 32 18 " clip-rule="nonzero"/></clipPath><clipPath id="id19"><path d="M 5.984375 57.363281 L 5.984375 9.835938 C 5.984375 8.855469 6.335938 8.019531 7.035156 7.328125 C 7.734375 6.636719 8.578125 6.289062 9.566406 6.289062 L 58.300781 6.289062 C 59.289062 6.289062 60.136719 6.636719 60.835938 7.328125 C 61.535156 8.019531 61.882812 8.855469 61.882812 9.835938 L 61.882812 57.363281 C 61.882812 58.34375 61.535156 59.179688 60.835938 59.871094 C 60.136719 60.5625 59.289062 60.910156 58.300781 60.910156 L 9.566406 60.910156 C 8.578125 60.910156 7.734375 60.5625 7.035156 59.871094 C 6.335938 59.179688 5.984375 58.34375 5.984375 57.363281 Z M 5.984375 57.363281 " clip-rule="nonzero"/></clipPath><clipPath id="id20"><path d="M 3 4.382812 L 64.5 4.382812 L 64.5 65.132812 L 3 65.132812 Z M 3 4.382812 " clip-rule="nonzero"/></clipPath><clipPath id="id21"><path d="M 2.121094 1.851562 L 65.871094 1.851562 L 65.871094 64.851562 L 2.121094 64.851562 Z M 2.121094 1.851562 " clip-rule="nonzero"/></clipPath></defs><g clip-path="url(#id1)"><path fill="#d804b5" d="M 5.269531 0.613281 L 62.601562 0.613281 C 63.078125 0.613281 63.535156 0.703125 63.972656 0.886719 C 64.410156 1.066406 64.800781 1.320312 65.136719 1.652344 C 65.472656 1.984375 65.730469 2.371094 65.910156 2.804688 C 66.09375 3.238281 66.183594 3.691406 66.183594 4.160156 L 66.183594 63.039062 C 66.183594 63.507812 66.09375 63.960938 65.910156 64.394531 C 65.730469 64.828125 65.472656 65.214844 65.136719 65.546875 C 64.800781 65.878906 64.410156 66.132812 63.972656 66.316406 C 63.535156 66.496094 63.078125 66.585938 62.601562 66.585938 L 5.269531 66.585938 C 4.792969 66.585938 4.335938 66.496094 3.898438 66.316406 C 3.457031 66.132812 3.070312 65.878906 2.734375 65.546875 C 2.398438 65.214844 2.140625 64.828125 1.957031 64.394531 C 1.777344 63.960938 1.683594 63.507812 1.683594 63.039062 L 1.683594 4.160156 C 1.683594 3.691406 1.777344 3.238281 1.957031 2.804688 C 2.140625 2.371094 2.398438 1.984375 2.734375 1.652344 C 3.070312 1.320312 3.457031 1.066406 3.898438 0.886719 C 4.335938 0.703125 4.792969 0.613281 5.269531 0.613281 Z M 5.269531 0.613281 " fill-opacity="1" fill-rule="nonzero"/></g><g clip-path="url(#id2)"><g clip-path="url(#id3)"><path fill="#d804b5" d="M 61.882812 6.289062 L 5.984375 6.289062 L 5.984375 60.910156 L 61.882812 60.910156 Z M 61.882812 6.289062 " fill-opacity="1" fill-rule="nonzero"/></g></g><g clip-path="url(#id4)"><g clip-path="url(#id5)"><path fill="#e6e6e6" d="M 35.023438 46.867188 C 34.6875 46.5625 34.339844 46.253906 34.003906 45.910156 C 33.738281 46.167969 33.484375 46.40625 33.222656 46.644531 C 29.914062 49.601562 26.503906 50.832031 24.480469 49.636719 C 22.527344 48.492188 21.910156 45.109375 22.691406 40.855469 C 22.777344 40.394531 22.875 39.933594 22.992188 39.46875 C 22.644531 39.363281 22.308594 39.265625 21.972656 39.148438 C 17.8125 37.675781 15.070312 35.285156 15.070312 32.894531 C 15.070312 30.585938 17.628906 28.347656 21.621094 26.914062 C 22.070312 26.757812 22.542969 26.605469 23.027344 26.46875 C 22.914062 26.023438 22.824219 25.597656 22.742188 25.183594 C 21.90625 20.863281 22.492188 17.414062 24.464844 16.25 C 26.519531 15.019531 29.925781 16.335938 33.351562 19.429688 C 33.550781 19.617188 33.753906 19.824219 33.96875 20.027344 C 34.289062 19.71875 34.589844 19.414062 34.90625 19.140625 C 38.148438 16.246094 41.371094 15.039062 43.34375 16.199219 C 45.398438 17.394531 46.003906 21.085938 45.082031 25.648438 C 45.03125 25.941406 44.972656 26.214844 44.898438 26.503906 C 45.316406 26.625 45.734375 26.761719 46.121094 26.898438 C 50.195312 28.332031 52.835938 30.570312 52.804688 32.929688 C 52.804688 35.335938 49.980469 37.714844 45.648438 39.183594 C 45.414062 39.25 45.183594 39.335938 44.945312 39.402344 C 45.046875 39.746094 45.113281 40.085938 45.179688 40.429688 C 46.050781 44.855469 45.378906 48.476562 43.359375 49.671875 C 42.828125 49.980469 42.21875 50.136719 41.597656 50.121094 C 39.746094 50.121094 37.394531 48.949219 35.023438 46.867188 Z M 38.300781 40.597656 C 37.339844 42.027344 36.285156 43.398438 35.140625 44.699219 C 35.457031 45.019531 35.777344 45.316406 36.09375 45.589844 C 38.851562 48.015625 41.390625 48.921875 42.578125 48.21875 C 42.941406 47.921875 43.238281 47.554688 43.449219 47.144531 C 43.660156 46.734375 43.785156 46.285156 43.8125 45.828125 C 44.054688 44.132812 43.988281 42.410156 43.613281 40.738281 C 43.5625 40.429688 43.5 40.121094 43.414062 39.796875 C 41.730469 40.175781 40.019531 40.441406 38.300781 40.597656 Z M 24.296875 41.144531 C 23.609375 44.785156 24.113281 47.5 25.300781 48.203125 C 25.722656 48.371094 26.179688 48.449219 26.632812 48.429688 C 27.089844 48.410156 27.535156 48.296875 27.941406 48.09375 C 29.519531 47.460938 30.953125 46.542969 32.171875 45.394531 C 32.421875 45.191406 32.65625 44.949219 32.90625 44.710938 C 31.738281 43.410156 30.65625 42.042969 29.664062 40.609375 C 27.949219 40.472656 26.246094 40.222656 24.566406 39.863281 C 24.464844 40.308594 24.378906 40.734375 24.296875 41.144531 Z M 34.023438 43.539062 C 34.757812 42.699219 35.492188 41.777344 36.226562 40.753906 C 35.492188 40.785156 34.722656 40.804688 33.953125 40.804688 C 33.183594 40.804688 32.46875 40.785156 31.75 40.753906 C 32.5 41.757812 33.253906 42.699219 34.019531 43.539062 Z M 30.511719 26.863281 C 29.875 27.800781 29.257812 28.789062 28.671875 29.835938 C 28.089844 30.859375 27.554688 31.902344 27.070312 32.941406 C 27.570312 33.964844 28.105469 35.007812 28.691406 36.066406 C 29.273438 37.09375 29.894531 38.101562 30.527344 39.058594 C 31.628906 39.125 32.785156 39.164062 33.953125 39.164062 C 35.121094 39.164062 36.292969 39.128906 37.414062 39.046875 C 38.015625 38.105469 38.632812 37.097656 39.21875 36.054688 C 39.804688 35.011719 40.355469 33.953125 40.839844 32.929688 C 40.355469 31.921875 39.804688 30.878906 39.21875 29.835938 C 38.632812 28.792969 38.015625 27.800781 37.398438 26.863281 C 36.277344 26.777344 35.125 26.726562 33.953125 26.726562 C 32.785156 26.726562 31.632812 26.777344 30.511719 26.863281 Z M 24.996094 38.292969 C 26.144531 38.542969 27.304688 38.730469 28.472656 38.855469 C 28.070312 38.207031 27.671875 37.558594 27.285156 36.875 C 26.917969 36.207031 26.550781 35.542969 26.21875 34.875 C 25.734375 36.035156 25.332031 37.183594 24.996094 38.292969 Z M 40.621094 36.855469 C 40.238281 37.539062 39.851562 38.1875 39.46875 38.820312 C 40.65625 38.679688 41.832031 38.472656 42.996094 38.207031 C 42.632812 37.054688 42.207031 35.917969 41.726562 34.804688 C 41.375 35.488281 41.007812 36.171875 40.621094 36.855469 Z M 22.140625 28.484375 C 18.730469 29.714844 16.675781 31.507812 16.675781 32.910156 C 16.742188 33.359375 16.898438 33.796875 17.140625 34.1875 C 17.378906 34.582031 17.699219 34.925781 18.078125 35.199219 C 19.382812 36.25 20.878906 37.0625 22.492188 37.589844 C 22.792969 37.699219 23.109375 37.78125 23.425781 37.882812 C 23.941406 36.203125 24.558594 34.554688 25.28125 32.945312 C 24.558594 31.363281 23.945312 29.738281 23.441406 28.078125 C 22.992188 28.195312 22.558594 28.332031 22.140625 28.484375 Z M 42.644531 32.910156 C 43.386719 34.5 44.019531 36.128906 44.542969 37.796875 C 44.761719 37.726562 44.980469 37.660156 45.179688 37.589844 C 48.90625 36.328125 51.214844 34.394531 51.230469 32.890625 C 51.230469 31.492188 49.089844 29.679688 45.597656 28.449219 C 45.246094 28.332031 44.863281 28.210938 44.480469 28.089844 C 43.972656 29.730469 43.359375 31.339844 42.644531 32.910156 Z M 40.605469 28.980469 C 40.992188 29.664062 41.359375 30.332031 41.691406 30.996094 C 42.15625 29.910156 42.558594 28.796875 42.894531 27.664062 C 41.757812 27.402344 40.609375 27.195312 39.453125 27.050781 C 39.851562 27.679688 40.238281 28.3125 40.605469 28.980469 Z M 25.015625 27.652344 C 25.347656 28.746094 25.75 29.855469 26.21875 31 C 26.550781 30.332031 26.917969 29.667969 27.285156 29 C 27.65625 28.335938 28.039062 27.6875 28.441406 27.050781 C 27.238281 27.203125 26.101562 27.410156 25.015625 27.652344 Z M 35.960938 20.390625 C 35.675781 20.644531 35.390625 20.917969 35.105469 21.191406 C 36.265625 22.476562 37.332031 23.835938 38.296875 25.261719 C 40 25.421875 41.683594 25.695312 43.34375 26.082031 C 43.410156 25.828125 43.457031 25.570312 43.511719 25.316406 C 44.296875 21.386719 43.8125 18.378906 42.542969 17.628906 C 42.265625 17.476562 41.949219 17.402344 41.628906 17.414062 C 40.261719 17.40625 38.167969 18.425781 35.960938 20.386719 Z M 25.265625 17.667969 C 24.078125 18.371094 23.609375 21.171875 24.3125 24.863281 C 24.394531 25.253906 24.480469 25.648438 24.578125 26.058594 C 26.242188 25.683594 27.925781 25.414062 29.625 25.253906 C 30.59375 23.828125 31.667969 22.46875 32.835938 21.183594 C 32.652344 20.996094 32.449219 20.824219 32.265625 20.65625 C 29.941406 18.546875 27.707031 17.4375 26.246094 17.4375 C 25.902344 17.425781 25.5625 17.507812 25.265625 17.667969 Z M 36.191406 25.117188 C 35.503906 24.164062 34.761719 23.246094 33.964844 22.367188 C 33.214844 23.203125 32.460938 24.128906 31.730469 25.117188 C 32.464844 25.085938 33.199219 25.066406 33.953125 25.066406 C 34.703125 25.066406 35.457031 25.082031 36.195312 25.117188 Z M 30.613281 32.976562 C 30.597656 32.539062 30.671875 32.101562 30.832031 31.691406 C 30.992188 31.277344 31.238281 30.902344 31.550781 30.582031 C 31.863281 30.261719 32.242188 30.003906 32.660156 29.820312 C 33.078125 29.640625 33.527344 29.539062 33.988281 29.527344 C 34.910156 29.558594 35.785156 29.9375 36.417969 30.585938 C 37.050781 31.230469 37.390625 32.09375 37.363281 32.976562 C 37.390625 33.867188 37.054688 34.726562 36.421875 35.375 C 35.789062 36.023438 34.910156 36.402344 33.984375 36.433594 C 33.527344 36.417969 33.074219 36.320312 32.65625 36.136719 C 32.238281 35.957031 31.863281 35.699219 31.550781 35.378906 C 31.234375 35.054688 30.992188 34.679688 30.832031 34.265625 C 30.671875 33.855469 30.59375 33.417969 30.613281 32.976562 Z M 30.613281 32.976562 " fill-opacity="1" fill-rule="nonzero"/></g></g><g clip-path="url(#id6)"><g clip-path="url(#id7)"><path fill="#d804b5" d="M 9.566406 6.289062 L 58.300781 6.289062 C 58.777344 6.289062 59.234375 6.378906 59.671875 6.558594 C 60.113281 6.738281 60.5 6.996094 60.835938 7.328125 C 61.171875 7.660156 61.429688 8.042969 61.613281 8.480469 C 61.792969 8.914062 61.882812 9.367188 61.882812 9.835938 L 61.882812 57.363281 C 61.882812 57.832031 61.792969 58.285156 61.613281 58.71875 C 61.429688 59.15625 61.171875 59.539062 60.835938 59.871094 C 60.5 60.203125 60.113281 60.460938 59.671875 60.640625 C 59.234375 60.820312 58.777344 60.910156 58.300781 60.910156 L 9.566406 60.910156 C 9.09375 60.910156 8.636719 60.820312 8.195312 60.640625 C 7.757812 60.460938 7.371094 60.203125 7.035156 59.871094 C 6.699219 59.539062 6.4375 59.15625 6.257812 58.71875 C 6.074219 58.285156 5.984375 57.832031 5.984375 57.363281 L 5.984375 9.835938 C 5.984375 9.367188 6.074219 8.914062 6.257812 8.480469 C 6.4375 8.042969 6.699219 7.660156 7.035156 7.328125 C 7.371094 6.996094 7.757812 6.738281 8.195312 6.558594 C 8.636719 6.378906 9.09375 6.289062 9.566406 6.289062 Z M 9.566406 6.289062 " fill-opacity="1" fill-rule="nonzero"/></g></g><g clip-path="url(#id8)"><g clip-path="url(#id9)"><path fill="#d804b5" d="M 59.78125 8.554688 L 54.890625 55.519531 L 32.898438 60.746094 L 10.964844 55.527344 L 6.078125 8.554688 Z M 59.78125 8.554688 " fill-opacity="1" fill-rule="nonzero"/></g></g><g clip-path="url(#id10)"><g clip-path="url(#id11)"><path fill="#d804b5" d="M 32.929688 56.75 L 50.703125 52.53125 L 54.882812 12.398438 L 32.929688 12.398438 Z M 32.929688 56.75 " fill-opacity="1" fill-rule="nonzero"/></g></g><g clip-path="url(#id12)"><g clip-path="url(#id13)"><path fill="#ebebeb" d="M 23.417969 23.917969 L 32.929688 23.917969 L 32.929688 18.15625 L 16.070312 18.15625 L 16.230469 19.703125 L 17.882812 35.578125 L 32.929688 35.578125 L 32.929688 29.816406 L 24.035156 29.816406 Z M 23.417969 23.917969 " fill-opacity="1" fill-rule="nonzero"/></g></g><g clip-path="url(#id14)"><g clip-path="url(#id15)"><path fill="#ebebeb" d="M 24.933594 38.460938 L 18.1875 38.460938 L 19.128906 47.503906 L 32.898438 50.78125 L 32.929688 50.773438 L 32.929688 44.78125 L 32.902344 44.785156 L 25.414062 43.054688 Z M 24.933594 38.460938 " fill-opacity="1" fill-rule="nonzero"/></g></g><g clip-path="url(#id16)"><g clip-path="url(#id17)"><path fill="#ffffff" d="M 32.90625 35.578125 L 41.1875 35.578125 L 40.40625 43.050781 L 32.90625 44.785156 L 32.90625 50.777344 L 46.691406 47.503906 L 46.792969 46.53125 L 48.371094 31.363281 L 48.535156 29.816406 L 32.90625 29.816406 Z M 32.90625 35.578125 " fill-opacity="1" fill-rule="nonzero"/></g></g><g clip-path="url(#id18)"><g clip-path="url(#id19)"><path fill="#ffffff" d="M 32.90625 23.90625 L 32.90625 23.917969 L 49.148438 23.917969 L 49.28125 22.625 L 49.589844 19.703125 L 49.75 18.15625 L 32.90625 18.15625 Z M 32.90625 23.90625 " fill-opacity="1" fill-rule="nonzero"/></g></g><g clip-path="url(#id20)"><path fill="#d804b5" d="M 64.484375 4.382812 L 3.011719 4.382812 L 3.011719 65.132812 L 64.484375 65.132812 Z M 64.484375 4.382812 " fill-opacity="1" fill-rule="nonzero"/></g><path fill="#ffffff" d="M 20.179688 49.058594 L 24.09375 46.71875 C 24.847656 48.042969 25.535156 49.160156 27.183594 49.160156 C 28.761719 49.160156 29.757812 48.554688 29.757812 46.175781 L 29.757812 30.027344 L 34.5625 30.027344 L 34.5625 46.242188 C 34.5625 51.160156 31.644531 53.402344 27.390625 53.402344 C 25.882812 53.480469 24.390625 53.109375 23.105469 52.335938 C 21.816406 51.558594 20.796875 50.417969 20.179688 49.058594 Z M 37.175781 48.550781 L 41.089844 46.308594 C 41.523438 47.183594 42.199219 47.914062 43.035156 48.425781 C 43.875 48.9375 44.839844 49.203125 45.824219 49.191406 C 47.816406 49.191406 49.085938 48.210938 49.085938 46.851562 C 49.085938 45.222656 47.78125 44.648438 45.585938 43.691406 L 44.386719 43.191406 C 40.921875 41.730469 38.621094 39.898438 38.621094 36.03125 C 38.621094 32.46875 41.367188 29.757812 45.65625 29.757812 C 47.046875 29.65625 48.4375 29.964844 49.652344 30.640625 C 50.867188 31.316406 51.851562 32.328125 52.488281 33.554688 L 48.746094 35.929688 C 48.5 35.324219 48.074219 34.800781 47.519531 34.4375 C 46.96875 34.074219 46.320312 33.886719 45.65625 33.894531 C 45.367188 33.867188 45.074219 33.898438 44.796875 33.988281 C 44.523438 34.078125 44.269531 34.222656 44.050781 34.414062 C 43.835938 34.605469 43.660156 34.839844 43.542969 35.097656 C 43.421875 35.359375 43.359375 35.644531 43.355469 35.929688 C 43.355469 37.355469 44.25 37.933594 46.304688 38.816406 L 47.507812 39.324219 C 51.59375 41.054688 53.890625 42.816406 53.890625 46.785156 C 53.890625 51.0625 50.492188 53.402344 45.929688 53.402344 C 41.464844 53.402344 38.582031 51.300781 37.175781 48.550781 " fill-opacity="1" fill-rule="nonzero"/><g clip-path="url(#id21)"><path fill="#d804b5" d="M 5.519531 1.851562 L 62.476562 1.851562 C 62.925781 1.851562 63.359375 1.9375 63.773438 2.109375 C 64.191406 2.28125 64.554688 2.527344 64.875 2.84375 C 65.191406 3.160156 65.4375 3.527344 65.609375 3.941406 C 65.78125 4.355469 65.867188 4.789062 65.867188 5.238281 L 65.867188 61.464844 C 65.867188 61.914062 65.78125 62.34375 65.609375 62.761719 C 65.4375 63.175781 65.191406 63.542969 64.875 63.859375 C 64.554688 64.175781 64.191406 64.421875 63.773438 64.59375 C 63.359375 64.765625 62.925781 64.851562 62.476562 64.851562 L 5.519531 64.851562 C 5.066406 64.851562 4.636719 64.765625 4.21875 64.59375 C 3.804688 64.421875 3.4375 64.175781 3.121094 63.859375 C 2.800781 63.542969 2.558594 63.175781 2.386719 62.761719 C 2.214844 62.34375 2.128906 61.914062 2.128906 61.464844 L 2.128906 5.238281 C 2.128906 4.789062 2.214844 4.355469 2.386719 3.941406 C 2.558594 3.527344 2.800781 3.160156 3.121094 2.84375 C 3.4375 2.527344 3.804688 2.28125 4.21875 2.109375 C 4.636719 1.9375 5.066406 1.851562 5.519531 1.851562 Z M 5.519531 1.851562 " fill-opacity="1" fill-rule="nonzero"/></g><path fill="#d804b5" d="M 59.730469 7.269531 L 55.101562 56.039062 L 34.289062 61.464844 L 13.535156 56.046875 L 8.910156 7.269531 Z M 59.730469 7.269531 " fill-opacity="1" fill-rule="nonzero"/><path fill="#d804b5" d="M 34.320312 57.316406 L 51.136719 52.933594 L 55.09375 11.257812 L 34.320312 11.257812 Z M 34.320312 57.316406 " fill-opacity="1" fill-rule="nonzero"/><path fill="#ebebeb" d="M 34.320312 29.347656 L 19.511719 29.347656 L 20.082031 35.332031 L 34.320312 35.332031 Z M 34.320312 29.347656 " fill-opacity="1" fill-rule="nonzero"/><path fill="#ebebeb" d="M 34.320312 17.242188 L 18.367188 17.242188 L 18.945312 23.222656 L 34.320312 23.222656 Z M 34.320312 17.242188 " fill-opacity="1" fill-rule="nonzero"/><path fill="#ebebeb" d="M 20.367188 38.324219 L 21.257812 47.714844 L 34.289062 51.117188 L 34.320312 51.109375 L 34.320312 44.886719 L 34.289062 44.890625 L 27.207031 43.09375 L 26.753906 38.324219 Z M 20.367188 38.324219 " fill-opacity="1" fill-rule="nonzero"/><path fill="#ffffff" d="M 42.132812 35.332031 L 41.394531 43.089844 L 34.296875 44.890625 L 34.296875 51.113281 L 47.339844 47.714844 L 47.433594 46.703125 L 48.929688 30.957031 L 49.085938 29.347656 L 50.234375 17.242188 L 34.296875 17.242188 L 34.296875 23.222656 L 43.261719 23.222656 L 42.683594 29.347656 L 34.296875 29.347656 L 34.296875 35.332031 Z M 42.132812 35.332031 " fill-opacity="1" fill-rule="nonzero"/></svg>