<svg xmlns="http://www.w3.org/2000/svg" xmlns:xlink="http://www.w3.org/1999/xlink" width="90" zoomAndPan="magnify" viewBox="0 0 67.5 67.499996" height="90" preserveAspectRatio="xMidYMid meet" version="1.0"><defs><clipPath id="id1"><path d="M 14.617188 14.25 L 55.867188 14.25 L 55.867188 55.5 L 14.617188 55.5 Z M 14.617188 14.25 " clip-rule="nonzero"/></clipPath><clipPath id="id2"><path d="M 1.683594 0.601562 L 66.183594 0.601562 L 66.183594 66.601562 L 1.683594 66.601562 Z M 1.683594 0.601562 " clip-rule="nonzero"/></clipPath><clipPath id="id3"><path d="M 5.984375 6.289062 L 61.882812 6.289062 L 61.882812 60.910156 L 5.984375 60.910156 Z M 5.984375 6.289062 " clip-rule="nonzero"/></clipPath><clipPath id="id4"><path d="M 5.984375 57.363281 L 5.984375 9.835938 C 5.984375 8.855469 6.335938 8.019531 7.035156 7.328125 C 7.734375 6.636719 8.578125 6.289062 9.566406 6.289062 L 58.300781 6.289062 C 59.289062 6.289062 60.136719 6.636719 60.835938 7.328125 C 61.535156 8.019531 61.882812 8.855469 61.882812 9.835938 L 61.882812 57.363281 C 61.882812 58.34375 61.535156 59.179688 60.835938 59.871094 C 60.136719 60.5625 59.289062 60.910156 58.300781 60.910156 L 9.566406 60.910156 C 8.578125 60.910156 7.734375 60.5625 7.035156 59.871094 C 6.335938 59.179688 5.984375 58.34375 5.984375 57.363281 Z M 5.984375 57.363281 " clip-rule="nonzero"/></clipPath><clipPath id="id5"><path d="M 15 15 L 53 15 L 53 51 L 15 51 Z M 15 15 " clip-rule="nonzero"/></clipPath><clipPath id="id6"><path d="M 5.984375 57.363281 L 5.984375 9.835938 C 5.984375 8.855469 6.335938 8.019531 7.035156 7.328125 C 7.734375 6.636719 8.578125 6.289062 9.566406 6.289062 L 58.300781 6.289062 C 59.289062 6.289062 60.136719 6.636719 60.835938 7.328125 C 61.535156 8.019531 61.882812 8.855469 61.882812 9.835938 L 61.882812 57.363281 C 61.882812 58.34375 61.535156 59.179688 60.835938 59.871094 C 60.136719 60.5625 59.289062 60.910156 58.300781 60.910156 L 9.566406 60.910156 C 8.578125 60.910156 7.734375 60.5625 7.035156 59.871094 C 6.335938 59.179688 5.984375 58.34375 5.984375 57.363281 Z M 5.984375 57.363281 " clip-rule="nonzero"/></clipPath><clipPath id="id7"><path d="M 5.984375 6.289062 L 61.882812 6.289062 L 61.882812 60.910156 L 5.984375 60.910156 Z M 5.984375 6.289062 " clip-rule="nonzero"/></clipPath><clipPath id="id8"><path d="M 5.984375 57.363281 L 5.984375 9.835938 C 5.984375 8.855469 6.335938 8.019531 7.035156 7.328125 C 7.734375 6.636719 8.578125 6.289062 9.566406 6.289062 L 58.300781 6.289062 C 59.289062 6.289062 60.136719 6.636719 60.835938 7.328125 C 61.535156 8.019531 61.882812 8.855469 61.882812 9.835938 L 61.882812 57.363281 C 61.882812 58.34375 61.535156 59.179688 60.835938 59.871094 C 60.136719 60.5625 59.289062 60.910156 58.300781 60.910156 L 9.566406 60.910156 C 8.578125 60.910156 7.734375 60.5625 7.035156 59.871094 C 6.335938 59.179688 5.984375 58.34375 5.984375 57.363281 Z M 5.984375 57.363281 " clip-rule="nonzero"/></clipPath><clipPath id="id9"><path d="M 6 8 L 60 8 L 60 60.910156 L 6 60.910156 Z M 6 8 " clip-rule="nonzero"/></clipPath><clipPath id="id10"><path d="M 5.984375 57.363281 L 5.984375 9.835938 C 5.984375 8.855469 6.335938 8.019531 7.035156 7.328125 C 7.734375 6.636719 8.578125 6.289062 9.566406 6.289062 L 58.300781 6.289062 C 59.289062 6.289062 60.136719 6.636719 60.835938 7.328125 C 61.535156 8.019531 61.882812 8.855469 61.882812 9.835938 L 61.882812 57.363281 C 61.882812 58.34375 61.535156 59.179688 60.835938 59.871094 C 60.136719 60.5625 59.289062 60.910156 58.300781 60.910156 L 9.566406 60.910156 C 8.578125 60.910156 7.734375 60.5625 7.035156 59.871094 C 6.335938 59.179688 5.984375 58.34375 5.984375 57.363281 Z M 5.984375 57.363281 " clip-rule="nonzero"/></clipPath><clipPath id="id11"><path d="M 32 12 L 55 12 L 55 57 L 32 57 Z M 32 12 " clip-rule="nonzero"/></clipPath><clipPath id="id12"><path d="M 5.984375 57.363281 L 5.984375 9.835938 C 5.984375 8.855469 6.335938 8.019531 7.035156 7.328125 C 7.734375 6.636719 8.578125 6.289062 9.566406 6.289062 L 58.300781 6.289062 C 59.289062 6.289062 60.136719 6.636719 60.835938 7.328125 C 61.535156 8.019531 61.882812 8.855469 61.882812 9.835938 L 61.882812 57.363281 C 61.882812 58.34375 61.535156 59.179688 60.835938 59.871094 C 60.136719 60.5625 59.289062 60.910156 58.300781 60.910156 L 9.566406 60.910156 C 8.578125 60.910156 7.734375 60.5625 7.035156 59.871094 C 6.335938 59.179688 5.984375 58.34375 5.984375 57.363281 Z M 5.984375 57.363281 " clip-rule="nonzero"/></clipPath><clipPath id="id13"><path d="M 16 18 L 33 18 L 33 36 L 16 36 Z M 16 18 " clip-rule="nonzero"/></clipPath><clipPath id="id14"><path d="M 5.984375 57.363281 L 5.984375 9.835938 C 5.984375 8.855469 6.335938 8.019531 7.035156 7.328125 C 7.734375 6.636719 8.578125 6.289062 9.566406 6.289062 L 58.300781 6.289062 C 59.289062 6.289062 60.136719 6.636719 60.835938 7.328125 C 61.535156 8.019531 61.882812 8.855469 61.882812 9.835938 L 61.882812 57.363281 C 61.882812 58.34375 61.535156 59.179688 60.835938 59.871094 C 60.136719 60.5625 59.289062 60.910156 58.300781 60.910156 L 9.566406 60.910156 C 8.578125 60.910156 7.734375 60.5625 7.035156 59.871094 C 6.335938 59.179688 5.984375 58.34375 5.984375 57.363281 Z M 5.984375 57.363281 " clip-rule="nonzero"/></clipPath><clipPath id="id15"><path d="M 18 38 L 33 38 L 33 51 L 18 51 Z M 18 38 " clip-rule="nonzero"/></clipPath><clipPath id="id16"><path d="M 5.984375 57.363281 L 5.984375 9.835938 C 5.984375 8.855469 6.335938 8.019531 7.035156 7.328125 C 7.734375 6.636719 8.578125 6.289062 9.566406 6.289062 L 58.300781 6.289062 C 59.289062 6.289062 60.136719 6.636719 60.835938 7.328125 C 61.535156 8.019531 61.882812 8.855469 61.882812 9.835938 L 61.882812 57.363281 C 61.882812 58.34375 61.535156 59.179688 60.835938 59.871094 C 60.136719 60.5625 59.289062 60.910156 58.300781 60.910156 L 9.566406 60.910156 C 8.578125 60.910156 7.734375 60.5625 7.035156 59.871094 C 6.335938 59.179688 5.984375 58.34375 5.984375 57.363281 Z M 5.984375 57.363281 " clip-rule="nonzero"/></clipPath><clipPath id="id17"><path d="M 32 29 L 49 29 L 49 51 L 32 51 Z M 32 29 " clip-rule="nonzero"/></clipPath><clipPath id="id18"><path d="M 5.984375 57.363281 L 5.984375 9.835938 C 5.984375 8.855469 6.335938 8.019531 7.035156 7.328125 C 7.734375 6.636719 8.578125 6.289062 9.566406 6.289062 L 58.300781 6.289062 C 59.289062 6.289062 60.136719 6.636719 60.835938 7.328125 C 61.535156 8.019531 61.882812 8.855469 61.882812 9.835938 L 61.882812 57.363281 C 61.882812 58.34375 61.535156 59.179688 60.835938 59.871094 C 60.136719 60.5625 59.289062 60.910156 58.300781 60.910156 L 9.566406 60.910156 C 8.578125 60.910156 7.734375 60.5625 7.035156 59.871094 C 6.335938 59.179688 5.984375 58.34375 5.984375 57.363281 Z M 5.984375 57.363281 " clip-rule="nonzero"/></clipPath><clipPath id="id19"><path d="M 32 18 L 50 18 L 50 24 L 32 24 Z M 32 18 " clip-rule="nonzero"/></clipPath><clipPath id="id20"><path d="M 5.984375 57.363281 L 5.984375 9.835938 C 5.984375 8.855469 6.335938 8.019531 7.035156 7.328125 C 7.734375 6.636719 8.578125 6.289062 9.566406 6.289062 L 58.300781 6.289062 C 59.289062 6.289062 60.136719 6.636719 60.835938 7.328125 C 61.535156 8.019531 61.882812 8.855469 61.882812 9.835938 L 61.882812 57.363281 C 61.882812 58.34375 61.535156 59.179688 60.835938 59.871094 C 60.136719 60.5625 59.289062 60.910156 58.300781 60.910156 L 9.566406 60.910156 C 8.578125 60.910156 7.734375 60.5625 7.035156 59.871094 C 6.335938 59.179688 5.984375 58.34375 5.984375 57.363281 Z M 5.984375 57.363281 " clip-rule="nonzero"/></clipPath><clipPath id="id21"><path d="M 1.683594 1.515625 L 60.933594 1.515625 L 60.933594 66.015625 L 1.683594 66.015625 Z M 1.683594 1.515625 " clip-rule="nonzero"/></clipPath><clipPath id="id22"><path d="M 21.640625 20.449219 L 47.890625 20.449219 L 47.890625 46.699219 L 21.640625 46.699219 Z M 21.640625 20.449219 " clip-rule="nonzero"/></clipPath></defs><g clip-path="url(#id1)"><path fill="#d804b5" d="M 55.867188 34.875 C 55.867188 35.550781 55.832031 36.222656 55.765625 36.898438 C 55.699219 37.570312 55.601562 38.234375 55.46875 38.898438 C 55.339844 39.5625 55.175781 40.214844 54.976562 40.863281 C 54.78125 41.507812 54.554688 42.144531 54.296875 42.769531 C 54.039062 43.390625 53.75 44 53.429688 44.597656 C 53.113281 45.191406 52.765625 45.773438 52.390625 46.332031 C 52.015625 46.894531 51.613281 47.4375 51.183594 47.960938 C 50.757812 48.480469 50.304688 48.980469 49.824219 49.460938 C 49.347656 49.9375 48.847656 50.390625 48.324219 50.816406 C 47.804688 51.246094 47.261719 51.648438 46.699219 52.023438 C 46.136719 52.398438 45.558594 52.746094 44.964844 53.066406 C 44.367188 53.382812 43.757812 53.671875 43.132812 53.929688 C 42.511719 54.1875 41.875 54.414062 41.230469 54.613281 C 40.582031 54.808594 39.929688 54.972656 39.265625 55.105469 C 38.601562 55.234375 37.933594 55.335938 37.261719 55.402344 C 36.589844 55.46875 35.917969 55.5 35.242188 55.5 C 34.566406 55.5 33.890625 55.46875 33.21875 55.402344 C 32.546875 55.335938 31.878906 55.234375 31.21875 55.105469 C 30.554688 54.972656 29.902344 54.808594 29.253906 54.613281 C 28.609375 54.414062 27.972656 54.1875 27.347656 53.929688 C 26.726562 53.671875 26.113281 53.382812 25.519531 53.066406 C 24.921875 52.746094 24.34375 52.398438 23.78125 52.023438 C 23.222656 51.648438 22.679688 51.246094 22.15625 50.816406 C 21.636719 50.390625 21.136719 49.9375 20.65625 49.460938 C 20.179688 48.980469 19.726562 48.480469 19.296875 47.960938 C 18.871094 47.4375 18.46875 46.894531 18.09375 46.332031 C 17.71875 45.773438 17.371094 45.191406 17.050781 44.597656 C 16.734375 44 16.445312 43.390625 16.1875 42.769531 C 15.929688 42.144531 15.699219 41.507812 15.503906 40.863281 C 15.308594 40.214844 15.144531 39.5625 15.011719 38.898438 C 14.882812 38.234375 14.78125 37.570312 14.714844 36.898438 C 14.648438 36.222656 14.617188 35.550781 14.617188 34.875 C 14.617188 34.199219 14.648438 33.527344 14.714844 32.851562 C 14.78125 32.179688 14.882812 31.515625 15.011719 30.851562 C 15.144531 30.1875 15.308594 29.535156 15.503906 28.886719 C 15.699219 28.242188 15.929688 27.605469 16.1875 26.980469 C 16.445312 26.359375 16.734375 25.75 17.050781 25.152344 C 17.371094 24.558594 17.71875 23.976562 18.09375 23.417969 C 18.46875 22.855469 18.871094 22.3125 19.296875 21.789062 C 19.726562 21.269531 20.179688 20.769531 20.65625 20.289062 C 21.136719 19.8125 21.636719 19.359375 22.15625 18.933594 C 22.679688 18.503906 23.222656 18.101562 23.78125 17.726562 C 24.34375 17.351562 24.921875 17.003906 25.519531 16.683594 C 26.113281 16.367188 26.726562 16.078125 27.347656 15.820312 C 27.972656 15.5625 28.609375 15.335938 29.253906 15.136719 C 29.902344 14.941406 30.554688 14.777344 31.21875 14.644531 C 31.878906 14.515625 32.546875 14.414062 33.21875 14.347656 C 33.890625 14.28125 34.566406 14.25 35.242188 14.25 C 35.917969 14.25 36.589844 14.28125 37.261719 14.347656 C 37.933594 14.414062 38.601562 14.515625 39.265625 14.644531 C 39.929688 14.777344 40.582031 14.941406 41.230469 15.136719 C 41.875 15.335938 42.511719 15.5625 43.132812 15.820312 C 43.757812 16.078125 44.367188 16.367188 44.964844 16.683594 C 45.558594 17.003906 46.136719 17.351562 46.699219 17.726562 C 47.261719 18.101562 47.804688 18.503906 48.324219 18.933594 C 48.847656 19.359375 49.347656 19.8125 49.824219 20.289062 C 50.304688 20.769531 50.757812 21.269531 51.183594 21.789062 C 51.613281 22.3125 52.015625 22.855469 52.390625 23.417969 C 52.765625 23.976562 53.113281 24.558594 53.429688 25.152344 C 53.75 25.75 54.039062 26.359375 54.296875 26.980469 C 54.554688 27.605469 54.78125 28.242188 54.976562 28.886719 C 55.175781 29.535156 55.339844 30.1875 55.46875 30.851562 C 55.601562 31.515625 55.699219 32.179688 55.765625 32.851562 C 55.832031 33.527344 55.867188 34.199219 55.867188 34.875 Z M 55.867188 34.875 " fill-opacity="1" fill-rule="nonzero"/></g><g clip-path="url(#id2)"><path fill="#d804b5" d="M 5.269531 0.613281 L 62.601562 0.613281 C 63.078125 0.613281 63.535156 0.703125 63.972656 0.886719 C 64.410156 1.066406 64.800781 1.320312 65.136719 1.652344 C 65.472656 1.984375 65.730469 2.371094 65.910156 2.804688 C 66.09375 3.238281 66.183594 3.691406 66.183594 4.160156 L 66.183594 63.039062 C 66.183594 63.507812 66.09375 63.960938 65.910156 64.394531 C 65.730469 64.828125 65.472656 65.214844 65.136719 65.546875 C 64.800781 65.878906 64.410156 66.132812 63.972656 66.316406 C 63.535156 66.496094 63.078125 66.585938 62.601562 66.585938 L 5.269531 66.585938 C 4.792969 66.585938 4.335938 66.496094 3.898438 66.316406 C 3.457031 66.132812 3.070312 65.878906 2.734375 65.546875 C 2.398438 65.214844 2.140625 64.828125 1.957031 64.394531 C 1.777344 63.960938 1.683594 63.507812 1.683594 63.039062 L 1.683594 4.160156 C 1.683594 3.691406 1.777344 3.238281 1.957031 2.804688 C 2.140625 2.371094 2.398438 1.984375 2.734375 1.652344 C 3.070312 1.320312 3.457031 1.066406 3.898438 0.886719 C 4.335938 0.703125 4.792969 0.613281 5.269531 0.613281 Z M 5.269531 0.613281 " fill-opacity="1" fill-rule="nonzero"/></g><g clip-path="url(#id3)"><g clip-path="url(#id4)"><path fill="#d804b5" d="M 61.882812 6.289062 L 5.984375 6.289062 L 5.984375 60.910156 L 61.882812 60.910156 Z M 61.882812 6.289062 " fill-opacity="1" fill-rule="nonzero"/></g></g><g clip-path="url(#id5)"><g clip-path="url(#id6)"><path fill="#e6e6e6" d="M 35.023438 46.867188 C 34.6875 46.5625 34.339844 46.253906 34.003906 45.910156 C 33.738281 46.167969 33.484375 46.40625 33.222656 46.644531 C 29.914062 49.601562 26.503906 50.832031 24.480469 49.636719 C 22.527344 48.492188 21.910156 45.109375 22.691406 40.855469 C 22.777344 40.394531 22.875 39.933594 22.992188 39.46875 C 22.644531 39.363281 22.308594 39.265625 21.972656 39.148438 C 17.8125 37.675781 15.070312 35.285156 15.070312 32.894531 C 15.070312 30.585938 17.628906 28.347656 21.621094 26.914062 C 22.070312 26.757812 22.542969 26.605469 23.027344 26.46875 C 22.914062 26.023438 22.824219 25.597656 22.742188 25.183594 C 21.90625 20.863281 22.492188 17.414062 24.464844 16.25 C 26.519531 15.019531 29.925781 16.335938 33.351562 19.429688 C 33.550781 19.617188 33.753906 19.824219 33.96875 20.027344 C 34.289062 19.71875 34.589844 19.414062 34.90625 19.140625 C 38.148438 16.246094 41.371094 15.039062 43.34375 16.199219 C 45.398438 17.394531 46.003906 21.085938 45.082031 25.648438 C 45.03125 25.941406 44.972656 26.214844 44.898438 26.503906 C 45.316406 26.625 45.734375 26.761719 46.121094 26.898438 C 50.195312 28.332031 52.835938 30.570312 52.804688 32.929688 C 52.804688 35.335938 49.980469 37.714844 45.648438 39.183594 C 45.414062 39.25 45.183594 39.335938 44.945312 39.402344 C 45.046875 39.746094 45.113281 40.085938 45.179688 40.429688 C 46.050781 44.855469 45.378906 48.476562 43.359375 49.671875 C 42.828125 49.980469 42.21875 50.136719 41.597656 50.121094 C 39.746094 50.121094 37.394531 48.949219 35.023438 46.867188 Z M 38.300781 40.597656 C 37.339844 42.027344 36.285156 43.398438 35.140625 44.699219 C 35.457031 45.019531 35.777344 45.316406 36.09375 45.589844 C 38.851562 48.015625 41.390625 48.921875 42.578125 48.21875 C 42.941406 47.921875 43.238281 47.554688 43.449219 47.144531 C 43.660156 46.734375 43.785156 46.285156 43.8125 45.828125 C 44.054688 44.132812 43.988281 42.410156 43.613281 40.738281 C 43.5625 40.429688 43.5 40.121094 43.414062 39.796875 C 41.730469 40.175781 40.019531 40.441406 38.300781 40.597656 Z M 24.296875 41.144531 C 23.609375 44.785156 24.113281 47.5 25.300781 48.203125 C 25.722656 48.371094 26.179688 48.449219 26.632812 48.429688 C 27.089844 48.410156 27.535156 48.296875 27.941406 48.09375 C 29.519531 47.460938 30.953125 46.542969 32.171875 45.394531 C 32.421875 45.191406 32.65625 44.949219 32.90625 44.710938 C 31.738281 43.410156 30.65625 42.042969 29.664062 40.609375 C 27.949219 40.472656 26.246094 40.222656 24.566406 39.863281 C 24.464844 40.308594 24.378906 40.734375 24.296875 41.144531 Z M 34.023438 43.539062 C 34.757812 42.699219 35.492188 41.777344 36.226562 40.753906 C 35.492188 40.785156 34.722656 40.804688 33.953125 40.804688 C 33.183594 40.804688 32.46875 40.785156 31.75 40.753906 C 32.5 41.757812 33.253906 42.699219 34.019531 43.539062 Z M 30.511719 26.863281 C 29.875 27.800781 29.257812 28.789062 28.671875 29.835938 C 28.089844 30.859375 27.554688 31.902344 27.070312 32.941406 C 27.570312 33.964844 28.105469 35.007812 28.691406 36.066406 C 29.273438 37.09375 29.894531 38.101562 30.527344 39.058594 C 31.628906 39.125 32.785156 39.164062 33.953125 39.164062 C 35.121094 39.164062 36.292969 39.128906 37.414062 39.046875 C 38.015625 38.105469 38.632812 37.097656 39.21875 36.054688 C 39.804688 35.011719 40.355469 33.953125 40.839844 32.929688 C 40.355469 31.921875 39.804688 30.878906 39.21875 29.835938 C 38.632812 28.792969 38.015625 27.800781 37.398438 26.863281 C 36.277344 26.777344 35.125 26.726562 33.953125 26.726562 C 32.785156 26.726562 31.632812 26.777344 30.511719 26.863281 Z M 24.996094 38.292969 C 26.144531 38.542969 27.304688 38.730469 28.472656 38.855469 C 28.070312 38.207031 27.671875 37.558594 27.285156 36.875 C 26.917969 36.207031 26.550781 35.542969 26.21875 34.875 C 25.734375 36.035156 25.332031 37.183594 24.996094 38.292969 Z M 40.621094 36.855469 C 40.238281 37.539062 39.851562 38.1875 39.46875 38.820312 C 40.65625 38.679688 41.832031 38.472656 42.996094 38.207031 C 42.632812 37.054688 42.207031 35.917969 41.726562 34.804688 C 41.375 35.488281 41.007812 36.171875 40.621094 36.855469 Z M 22.140625 28.484375 C 18.730469 29.714844 16.675781 31.507812 16.675781 32.910156 C 16.742188 33.359375 16.898438 33.796875 17.140625 34.1875 C 17.378906 34.582031 17.699219 34.925781 18.078125 35.199219 C 19.382812 36.25 20.878906 37.0625 22.492188 37.589844 C 22.792969 37.699219 23.109375 37.78125 23.425781 37.882812 C 23.941406 36.203125 24.558594 34.554688 25.28125 32.945312 C 24.558594 31.363281 23.945312 29.738281 23.441406 28.078125 C 22.992188 28.195312 22.558594 28.332031 22.140625 28.484375 Z M 42.644531 32.910156 C 43.386719 34.5 44.019531 36.128906 44.542969 37.796875 C 44.761719 37.726562 44.980469 37.660156 45.179688 37.589844 C 48.90625 36.328125 51.214844 34.394531 51.230469 32.890625 C 51.230469 31.492188 49.089844 29.679688 45.597656 28.449219 C 45.246094 28.332031 44.863281 28.210938 44.480469 28.089844 C 43.972656 29.730469 43.359375 31.339844 42.644531 32.910156 Z M 40.605469 28.980469 C 40.992188 29.664062 41.359375 30.332031 41.691406 30.996094 C 42.15625 29.910156 42.558594 28.796875 42.894531 27.664062 C 41.757812 27.402344 40.609375 27.195312 39.453125 27.050781 C 39.851562 27.679688 40.238281 28.3125 40.605469 28.980469 Z M 25.015625 27.652344 C 25.347656 28.746094 25.75 29.855469 26.21875 31 C 26.550781 30.332031 26.917969 29.667969 27.285156 29 C 27.65625 28.335938 28.039062 27.6875 28.441406 27.050781 C 27.238281 27.203125 26.101562 27.410156 25.015625 27.652344 Z M 35.960938 20.390625 C 35.675781 20.644531 35.390625 20.917969 35.105469 21.191406 C 36.265625 22.476562 37.332031 23.835938 38.296875 25.261719 C 40 25.421875 41.683594 25.695312 43.34375 26.082031 C 43.410156 25.828125 43.457031 25.570312 43.511719 25.316406 C 44.296875 21.386719 43.8125 18.378906 42.542969 17.628906 C 42.265625 17.476562 41.949219 17.402344 41.628906 17.414062 C 40.261719 17.40625 38.167969 18.425781 35.960938 20.386719 Z M 25.265625 17.667969 C 24.078125 18.371094 23.609375 21.171875 24.3125 24.863281 C 24.394531 25.253906 24.480469 25.648438 24.578125 26.058594 C 26.242188 25.683594 27.925781 25.414062 29.625 25.253906 C 30.59375 23.828125 31.667969 22.46875 32.835938 21.183594 C 32.652344 20.996094 32.449219 20.824219 32.265625 20.65625 C 29.941406 18.546875 27.707031 17.4375 26.246094 17.4375 C 25.902344 17.425781 25.5625 17.507812 25.265625 17.667969 Z M 36.191406 25.117188 C 35.503906 24.164062 34.761719 23.246094 33.964844 22.367188 C 33.214844 23.203125 32.460938 24.128906 31.730469 25.117188 C 32.464844 25.085938 33.199219 25.066406 33.953125 25.066406 C 34.703125 25.066406 35.457031 25.082031 36.195312 25.117188 Z M 30.613281 32.976562 C 30.597656 32.539062 30.671875 32.101562 30.832031 31.691406 C 30.992188 31.277344 31.238281 30.902344 31.550781 30.582031 C 31.863281 30.261719 32.242188 30.003906 32.660156 29.820312 C 33.078125 29.640625 33.527344 29.539062 33.988281 29.527344 C 34.910156 29.558594 35.785156 29.9375 36.417969 30.585938 C 37.050781 31.230469 37.390625 32.09375 37.363281 32.976562 C 37.390625 33.867188 37.054688 34.726562 36.421875 35.375 C 35.789062 36.023438 34.910156 36.402344 33.984375 36.433594 C 33.527344 36.417969 33.074219 36.320312 32.65625 36.136719 C 32.238281 35.957031 31.863281 35.699219 31.550781 35.378906 C 31.234375 35.054688 30.992188 34.679688 30.832031 34.265625 C 30.671875 33.855469 30.59375 33.417969 30.613281 32.976562 Z M 30.613281 32.976562 " fill-opacity="1" fill-rule="nonzero"/></g></g><g clip-path="url(#id7)"><g clip-path="url(#id8)"><path fill="#d804b5" d="M 9.566406 6.289062 L 58.300781 6.289062 C 58.777344 6.289062 59.234375 6.378906 59.671875 6.558594 C 60.113281 6.738281 60.5 6.996094 60.835938 7.328125 C 61.171875 7.660156 61.429688 8.042969 61.613281 8.480469 C 61.792969 8.914062 61.882812 9.367188 61.882812 9.835938 L 61.882812 57.363281 C 61.882812 57.832031 61.792969 58.285156 61.613281 58.71875 C 61.429688 59.15625 61.171875 59.539062 60.835938 59.871094 C 60.5 60.203125 60.113281 60.460938 59.671875 60.640625 C 59.234375 60.820312 58.777344 60.910156 58.300781 60.910156 L 9.566406 60.910156 C 9.09375 60.910156 8.636719 60.820312 8.195312 60.640625 C 7.757812 60.460938 7.371094 60.203125 7.035156 59.871094 C 6.699219 59.539062 6.4375 59.15625 6.257812 58.71875 C 6.074219 58.285156 5.984375 57.832031 5.984375 57.363281 L 5.984375 9.835938 C 5.984375 9.367188 6.074219 8.914062 6.257812 8.480469 C 6.4375 8.042969 6.699219 7.660156 7.035156 7.328125 C 7.371094 6.996094 7.757812 6.738281 8.195312 6.558594 C 8.636719 6.378906 9.09375 6.289062 9.566406 6.289062 Z M 9.566406 6.289062 " fill-opacity="1" fill-rule="nonzero"/></g></g><g clip-path="url(#id9)"><g clip-path="url(#id10)"><path fill="#d804b5" d="M 59.78125 8.554688 L 54.890625 55.519531 L 32.898438 60.746094 L 10.964844 55.527344 L 6.078125 8.554688 Z M 59.78125 8.554688 " fill-opacity="1" fill-rule="nonzero"/></g></g><g clip-path="url(#id11)"><g clip-path="url(#id12)"><path fill="#d804b5" d="M 32.929688 56.75 L 50.703125 52.53125 L 54.882812 12.398438 L 32.929688 12.398438 Z M 32.929688 56.75 " fill-opacity="1" fill-rule="nonzero"/></g></g><g clip-path="url(#id13)"><g clip-path="url(#id14)"><path fill="#ebebeb" d="M 23.417969 23.917969 L 32.929688 23.917969 L 32.929688 18.15625 L 16.070312 18.15625 L 16.230469 19.703125 L 17.882812 35.578125 L 32.929688 35.578125 L 32.929688 29.816406 L 24.035156 29.816406 Z M 23.417969 23.917969 " fill-opacity="1" fill-rule="nonzero"/></g></g><g clip-path="url(#id15)"><g clip-path="url(#id16)"><path fill="#ebebeb" d="M 24.933594 38.460938 L 18.1875 38.460938 L 19.128906 47.503906 L 32.898438 50.78125 L 32.929688 50.773438 L 32.929688 44.78125 L 32.902344 44.785156 L 25.414062 43.054688 Z M 24.933594 38.460938 " fill-opacity="1" fill-rule="nonzero"/></g></g><g clip-path="url(#id17)"><g clip-path="url(#id18)"><path fill="#ffffff" d="M 32.90625 35.578125 L 41.1875 35.578125 L 40.40625 43.050781 L 32.90625 44.785156 L 32.90625 50.777344 L 46.691406 47.503906 L 46.792969 46.53125 L 48.371094 31.363281 L 48.535156 29.816406 L 32.90625 29.816406 Z M 32.90625 35.578125 " fill-opacity="1" fill-rule="nonzero"/></g></g><g clip-path="url(#id19)"><g clip-path="url(#id20)"><path fill="#ffffff" d="M 32.90625 23.90625 L 32.90625 23.917969 L 49.148438 23.917969 L 49.28125 22.625 L 49.589844 19.703125 L 49.75 18.15625 L 32.90625 18.15625 Z M 32.90625 23.90625 " fill-opacity="1" fill-rule="nonzero"/></g></g><g clip-path="url(#id21)"><path fill="#d804b5" d="M 107.71875 25.761719 L 60.53125 -21.421875 C 60.207031 -21.742188 59.855469 -22.03125 59.476562 -22.285156 C 59.097656 -22.539062 58.695312 -22.753906 58.273438 -22.929688 C 57.851562 -23.105469 57.417969 -23.238281 56.96875 -23.324219 C 56.519531 -23.414062 56.066406 -23.460938 55.609375 -23.460938 C 55.152344 -23.460938 54.699219 -23.414062 54.253906 -23.324219 C 53.804688 -23.238281 53.371094 -23.105469 52.945312 -22.929688 C 52.523438 -22.753906 52.125 -22.539062 51.742188 -22.285156 C 51.363281 -22.03125 51.011719 -21.742188 50.691406 -21.421875 L 40.894531 -11.625 L 53.324219 0.800781 C 54.058594 0.550781 54.808594 0.40625 55.582031 0.371094 C 56.355469 0.332031 57.121094 0.398438 57.875 0.578125 C 58.628906 0.753906 59.34375 1.03125 60.019531 1.40625 C 60.695312 1.785156 61.308594 2.25 61.851562 2.796875 C 62.398438 3.347656 62.859375 3.960938 63.230469 4.640625 C 63.605469 5.316406 63.878906 6.035156 64.050781 6.789062 C 64.21875 7.546875 64.285156 8.308594 64.242188 9.082031 C 64.199219 9.855469 64.046875 10.609375 63.792969 11.339844 L 75.769531 23.320312 C 76.210938 23.167969 76.660156 23.050781 77.117188 22.972656 C 77.578125 22.894531 78.042969 22.851562 78.507812 22.851562 C 78.972656 22.851562 79.4375 22.890625 79.894531 22.96875 C 80.355469 23.046875 80.804688 23.164062 81.246094 23.316406 C 81.6875 23.472656 82.109375 23.660156 82.519531 23.886719 C 82.925781 24.113281 83.3125 24.371094 83.675781 24.660156 C 84.039062 24.953125 84.378906 25.273438 84.6875 25.621094 C 85 25.96875 85.277344 26.339844 85.523438 26.734375 C 85.773438 27.128906 85.984375 27.542969 86.160156 27.976562 C 86.339844 28.40625 86.480469 28.847656 86.582031 29.304688 C 86.683594 29.757812 86.746094 30.21875 86.773438 30.683594 C 86.796875 31.148438 86.78125 31.613281 86.726562 32.078125 C 86.671875 32.539062 86.582031 32.996094 86.449219 33.445312 C 86.320312 33.890625 86.152344 34.324219 85.945312 34.742188 C 85.742188 35.164062 85.503906 35.5625 85.234375 35.941406 C 84.960938 36.320312 84.660156 36.671875 84.328125 37 C 83.992188 37.339844 83.628906 37.644531 83.242188 37.917969 C 82.851562 38.195312 82.445312 38.433594 82.015625 38.640625 C 81.585938 38.84375 81.140625 39.011719 80.683594 39.136719 C 80.222656 39.265625 79.757812 39.355469 79.285156 39.402344 C 78.808594 39.449219 78.335938 39.457031 77.859375 39.421875 C 77.386719 39.386719 76.917969 39.3125 76.457031 39.199219 C 75.992188 39.085938 75.546875 38.929688 75.109375 38.738281 C 74.675781 38.546875 74.257812 38.316406 73.863281 38.054688 C 73.464844 37.789062 73.09375 37.496094 72.75 37.167969 C 72.40625 36.839844 72.089844 36.484375 71.808594 36.101562 C 71.523438 35.71875 71.273438 35.316406 71.058594 34.890625 C 70.84375 34.464844 70.667969 34.023438 70.53125 33.570312 C 70.390625 33.113281 70.292969 32.648438 70.234375 32.175781 C 70.175781 31.707031 70.160156 31.230469 70.183594 30.753906 C 70.207031 30.28125 70.269531 29.808594 70.375 29.347656 C 70.480469 28.882812 70.621094 28.429688 70.804688 27.988281 L 59.640625 16.816406 L 59.640625 46.21875 C 59.921875 46.359375 60.191406 46.511719 60.453125 46.683594 C 60.71875 46.851562 60.96875 47.035156 61.210938 47.234375 C 61.453125 47.433594 61.683594 47.644531 61.902344 47.867188 C 62.121094 48.09375 62.324219 48.328125 62.515625 48.578125 C 62.707031 48.824219 62.886719 49.082031 63.046875 49.347656 C 63.210938 49.617188 63.355469 49.894531 63.488281 50.175781 C 63.617188 50.460938 63.734375 50.75 63.832031 51.050781 C 63.929688 51.347656 64.007812 51.648438 64.074219 51.953125 C 64.136719 52.261719 64.183594 52.570312 64.210938 52.882812 C 64.242188 53.191406 64.25 53.503906 64.246094 53.816406 C 64.238281 54.128906 64.214844 54.441406 64.171875 54.753906 C 64.128906 55.0625 64.070312 55.367188 63.996094 55.671875 C 63.917969 55.976562 63.824219 56.273438 63.714844 56.566406 C 63.601562 56.859375 63.476562 57.144531 63.332031 57.421875 C 63.191406 57.703125 63.03125 57.972656 62.859375 58.230469 C 62.6875 58.492188 62.5 58.742188 62.296875 58.980469 C 62.09375 59.21875 61.878906 59.445312 61.652344 59.660156 C 61.425781 59.878906 61.1875 60.078125 60.9375 60.265625 C 60.6875 60.453125 60.425781 60.625 60.15625 60.785156 C 59.886719 60.945312 59.609375 61.085938 59.320312 61.214844 C 59.035156 61.339844 58.742188 61.449219 58.445312 61.542969 C 58.144531 61.636719 57.84375 61.714844 57.535156 61.773438 C 57.230469 61.832031 56.917969 61.875 56.605469 61.898438 C 56.296875 61.921875 55.984375 61.929688 55.671875 61.917969 C 55.359375 61.90625 55.046875 61.878906 54.738281 61.832031 C 54.425781 61.785156 54.121094 61.722656 53.820312 61.640625 C 53.515625 61.558594 53.21875 61.460938 52.929688 61.347656 C 52.636719 61.230469 52.355469 61.101562 52.078125 60.953125 C 51.800781 60.808594 51.535156 60.644531 51.277344 60.46875 C 51.019531 60.289062 50.773438 60.101562 50.535156 59.894531 C 50.300781 59.691406 50.074219 59.472656 49.863281 59.242188 C 49.652344 59.011719 49.453125 58.769531 49.269531 58.515625 C 49.085938 58.261719 48.917969 58 48.761719 57.726562 C 48.609375 57.457031 48.46875 57.175781 48.347656 56.886719 C 48.222656 56.601562 48.117188 56.304688 48.027344 56.007812 C 47.941406 55.707031 47.867188 55.402344 47.8125 55.09375 C 47.757812 54.785156 47.722656 54.476562 47.699219 54.164062 C 47.679688 53.851562 47.679688 53.539062 47.695312 53.226562 C 47.710938 52.914062 47.742188 52.601562 47.796875 52.292969 C 47.847656 51.984375 47.914062 51.679688 48 51.378906 C 48.085938 51.078125 48.1875 50.785156 48.304688 50.496094 C 48.425781 50.203125 48.558594 49.921875 48.710938 49.648438 C 48.863281 49.375 49.027344 49.109375 49.207031 48.855469 C 49.390625 48.601562 49.585938 48.355469 49.792969 48.121094 C 50 47.890625 50.222656 47.667969 50.457031 47.460938 C 50.691406 47.25 50.933594 47.058594 51.191406 46.875 C 51.445312 46.695312 51.710938 46.53125 51.984375 46.378906 C 52.257812 46.230469 52.542969 46.097656 52.832031 45.976562 L 52.832031 16.304688 C 52.324219 16.097656 51.84375 15.84375 51.390625 15.539062 C 50.933594 15.238281 50.511719 14.894531 50.125 14.507812 C 49.738281 14.121094 49.394531 13.703125 49.089844 13.25 C 48.785156 12.792969 48.527344 12.316406 48.320312 11.808594 C 48.109375 11.304688 47.953125 10.785156 47.847656 10.25 C 47.742188 9.710938 47.6875 9.171875 47.691406 8.625 C 47.691406 8.078125 47.746094 7.539062 47.851562 7.003906 C 47.960938 6.464844 48.121094 5.945312 48.332031 5.441406 L 36.085938 -6.808594 L 3.730469 25.542969 C 3.40625 25.867188 3.121094 26.21875 2.867188 26.597656 C 2.613281 26.980469 2.398438 27.378906 2.222656 27.800781 C 2.046875 28.222656 1.914062 28.660156 1.824219 29.109375 C 1.738281 29.554688 1.691406 30.007812 1.691406 30.464844 C 1.691406 30.921875 1.738281 31.375 1.824219 31.824219 C 1.914062 32.269531 2.046875 32.707031 2.222656 33.128906 C 2.398438 33.550781 2.613281 33.953125 2.867188 34.332031 C 3.121094 34.710938 3.40625 35.0625 3.730469 35.386719 L 50.917969 82.574219 C 51.242188 82.898438 51.59375 83.1875 51.972656 83.441406 C 52.355469 83.695312 52.753906 83.90625 53.175781 84.082031 C 53.597656 84.257812 54.035156 84.390625 54.480469 84.480469 C 54.929688 84.570312 55.382812 84.613281 55.839844 84.613281 C 56.296875 84.613281 56.75 84.570312 57.199219 84.480469 C 57.644531 84.390625 58.082031 84.257812 58.503906 84.082031 C 58.925781 83.90625 59.328125 83.695312 59.707031 83.441406 C 60.085938 83.1875 60.4375 82.898438 60.761719 82.574219 L 107.726562 35.609375 C 108.046875 35.285156 108.335938 34.933594 108.589844 34.554688 C 108.84375 34.175781 109.058594 33.773438 109.234375 33.351562 C 109.40625 32.929688 109.539062 32.492188 109.628906 32.046875 C 109.71875 31.597656 109.761719 31.144531 109.761719 30.6875 C 109.761719 30.230469 109.71875 29.777344 109.628906 29.332031 C 109.539062 28.882812 109.40625 28.449219 109.234375 28.027344 C 109.058594 27.601562 108.84375 27.203125 108.589844 26.820312 C 108.335938 26.441406 108.046875 26.089844 107.726562 25.765625 " fill-opacity="1" fill-rule="nonzero"/></g><g clip-path="url(#id22)"><path fill="#ffffff" d="M 47.234375 32.410156 L 35.84375 21.023438 C 35.6875 20.863281 35.503906 20.742188 35.300781 20.65625 C 35.09375 20.574219 34.878906 20.53125 34.65625 20.53125 C 34.433594 20.53125 34.21875 20.574219 34.011719 20.65625 C 33.808594 20.742188 33.625 20.863281 33.46875 21.023438 L 31.105469 23.386719 L 34.105469 26.386719 C 34.464844 26.261719 34.832031 26.246094 35.203125 26.332031 C 35.574219 26.417969 35.894531 26.597656 36.164062 26.867188 C 36.433594 27.140625 36.609375 27.460938 36.691406 27.832031 C 36.777344 28.203125 36.757812 28.570312 36.632812 28.929688 L 39.523438 31.824219 C 39.734375 31.746094 39.957031 31.710938 40.183594 31.710938 C 40.410156 31.707031 40.628906 31.746094 40.84375 31.820312 C 41.058594 31.894531 41.253906 32.003906 41.429688 32.144531 C 41.609375 32.289062 41.757812 32.453125 41.875 32.644531 C 41.996094 32.839844 42.082031 33.046875 42.132812 33.265625 C 42.183594 33.488281 42.195312 33.710938 42.167969 33.9375 C 42.140625 34.160156 42.078125 34.375 41.980469 34.578125 C 41.878906 34.78125 41.75 34.964844 41.589844 35.125 C 41.425781 35.289062 41.238281 35.421875 41.03125 35.519531 C 40.820312 35.621094 40.601562 35.679688 40.371094 35.703125 C 40.140625 35.726562 39.914062 35.710938 39.6875 35.65625 C 39.464844 35.597656 39.253906 35.507812 39.0625 35.378906 C 38.871094 35.25 38.703125 35.09375 38.566406 34.90625 C 38.425781 34.722656 38.324219 34.515625 38.257812 34.296875 C 38.191406 34.074219 38.164062 33.847656 38.171875 33.617188 C 38.183594 33.386719 38.234375 33.164062 38.324219 32.949219 L 35.628906 30.253906 L 35.628906 37.351562 C 35.902344 37.484375 36.136719 37.675781 36.324219 37.917969 C 36.511719 38.160156 36.636719 38.433594 36.699219 38.734375 C 36.761719 39.035156 36.753906 39.332031 36.679688 39.632812 C 36.605469 39.929688 36.46875 40.195312 36.269531 40.429688 C 36.070312 40.664062 35.832031 40.84375 35.550781 40.96875 C 35.269531 41.09375 34.976562 41.148438 34.671875 41.140625 C 34.363281 41.128906 34.074219 41.050781 33.804688 40.90625 C 33.53125 40.761719 33.308594 40.566406 33.125 40.316406 C 32.945312 40.070312 32.828125 39.792969 32.773438 39.492188 C 32.71875 39.1875 32.734375 38.890625 32.820312 38.59375 C 32.902344 38.300781 33.046875 38.039062 33.253906 37.808594 C 33.457031 37.578125 33.699219 37.40625 33.984375 37.289062 L 33.984375 30.128906 C 33.738281 30.027344 33.519531 29.882812 33.332031 29.695312 C 33.144531 29.507812 33 29.289062 32.898438 29.042969 C 32.792969 28.796875 32.742188 28.542969 32.746094 28.273438 C 32.746094 28.007812 32.796875 27.753906 32.898438 27.507812 L 29.945312 24.550781 L 22.132812 32.359375 C 21.976562 32.515625 21.855469 32.699219 21.769531 32.902344 C 21.683594 33.109375 21.640625 33.324219 21.640625 33.546875 C 21.640625 33.769531 21.683594 33.984375 21.769531 34.191406 C 21.855469 34.394531 21.976562 34.578125 22.132812 34.734375 L 33.523438 46.125 C 33.679688 46.28125 33.863281 46.402344 34.070312 46.488281 C 34.273438 46.574219 34.488281 46.617188 34.710938 46.617188 C 34.933594 46.617188 35.148438 46.574219 35.355469 46.488281 C 35.558594 46.402344 35.742188 46.28125 35.898438 46.125 L 47.234375 34.789062 C 47.394531 34.628906 47.515625 34.449219 47.601562 34.242188 C 47.683594 34.039062 47.726562 33.824219 47.726562 33.601562 C 47.726562 33.378906 47.683594 33.164062 47.601562 32.957031 C 47.515625 32.75 47.394531 32.570312 47.234375 32.414062 " fill-opacity="1" fill-rule="nonzero"/></g></svg>