<svg xmlns="http://www.w3.org/2000/svg" xmlns:xlink="http://www.w3.org/1999/xlink" width="400" zoomAndPan="magnify" viewBox="0 0 300 299.999988" height="400" preserveAspectRatio="xMidYMid meet" version="1.0"><path fill="#000000" d="M 231.089844 208.222656 C 193.566406 233.671875 141.585938 223.875 115.511719 186.816406 C 89.4375 149.746094 97.789062 97.515625 134.425781 70.800781 C 134.996094 70.382812 135.488281 69.886719 135.894531 69.304688 C 136.304688 68.726562 136.609375 68.097656 136.808594 67.417969 C 137.007812 66.738281 137.09375 66.046875 137.066406 65.335938 C 137.035156 64.628906 136.894531 63.945312 136.640625 63.285156 C 136.386719 62.625 136.03125 62.019531 135.578125 61.476562 C 135.125 60.933594 134.597656 60.476562 133.992188 60.105469 C 133.390625 59.734375 132.742188 59.472656 132.050781 59.316406 C 131.359375 59.160156 130.664062 59.121094 129.957031 59.195312 C 120.726562 60.179688 111.765625 62.304688 103.074219 65.570312 C 94.382812 68.835938 86.238281 73.136719 78.644531 78.476562 C 29.300781 113.179688 17.648438 181.902344 52.351562 231.242188 C 87.054688 280.582031 155.671875 292.835938 205.011719 258.128906 C 220.171875 247.46875 232.433594 233.023438 240.503906 216.347656 C 240.8125 215.710938 241.007812 215.039062 241.097656 214.335938 C 241.183594 213.632812 241.152344 212.9375 241.007812 212.242188 C 240.863281 211.550781 240.613281 210.898438 240.253906 210.285156 C 239.894531 209.675781 239.445312 209.140625 238.90625 208.679688 C 238.371094 208.214844 237.777344 207.851562 237.121094 207.585938 C 236.464844 207.320312 235.785156 207.164062 235.078125 207.125 C 234.371094 207.082031 233.675781 207.15625 232.992188 207.34375 C 232.3125 207.53125 231.675781 207.824219 231.089844 208.222656 Z M 212.425781 44.320312 C 212.425781 44.648438 212.390625 44.96875 212.328125 45.289062 C 212.265625 45.605469 212.171875 45.917969 212.046875 46.214844 C 211.921875 46.515625 211.769531 46.800781 211.589844 47.074219 C 211.410156 47.34375 211.203125 47.59375 210.972656 47.824219 C 210.746094 48.050781 210.492188 48.257812 210.222656 48.4375 C 209.953125 48.617188 209.667969 48.769531 209.367188 48.894531 C 209.066406 49.019531 208.757812 49.113281 208.4375 49.175781 C 208.121094 49.238281 207.796875 49.269531 207.472656 49.269531 L 195.15625 49.269531 L 195.15625 61.585938 C 195.15625 61.914062 195.125 62.234375 195.0625 62.554688 C 195 62.871094 194.90625 63.183594 194.78125 63.480469 C 194.65625 63.78125 194.503906 64.066406 194.320312 64.335938 C 194.140625 64.609375 193.9375 64.859375 193.707031 65.085938 C 193.476562 65.316406 193.226562 65.523438 192.957031 65.703125 C 192.6875 65.882812 192.402344 66.035156 192.101562 66.160156 C 191.800781 66.285156 191.492188 66.378906 191.171875 66.441406 C 190.851562 66.503906 190.53125 66.535156 190.207031 66.535156 C 189.878906 66.539062 189.558594 66.507812 189.238281 66.441406 C 188.921875 66.378906 188.609375 66.285156 188.3125 66.160156 C 188.011719 66.039062 187.726562 65.886719 187.453125 65.703125 C 187.183594 65.523438 186.933594 65.320312 186.703125 65.089844 C 186.472656 64.859375 186.269531 64.609375 186.089844 64.339844 C 185.90625 64.070312 185.753906 63.78125 185.628906 63.484375 C 185.507812 63.183594 185.414062 62.871094 185.347656 62.554688 C 185.285156 62.234375 185.253906 61.914062 185.253906 61.585938 L 185.253906 49.269531 L 172.9375 49.269531 C 172.613281 49.269531 172.289062 49.238281 171.972656 49.171875 C 171.652344 49.109375 171.34375 49.015625 171.042969 48.890625 C 170.742188 48.765625 170.457031 48.613281 170.1875 48.433594 C 169.917969 48.253906 169.667969 48.046875 169.4375 47.820312 C 169.210938 47.589844 169.003906 47.339844 168.824219 47.070312 C 168.644531 46.800781 168.492188 46.515625 168.367188 46.214844 C 168.242188 45.914062 168.148438 45.605469 168.085938 45.285156 C 168.023438 44.96875 167.988281 44.644531 167.988281 44.320312 C 167.988281 42.949219 168.539062 41.714844 169.4375 40.820312 C 170.335938 39.921875 171.574219 39.367188 172.9375 39.367188 L 185.253906 39.367188 L 185.253906 27.050781 C 185.253906 26.726562 185.285156 26.40625 185.351562 26.085938 C 185.414062 25.769531 185.507812 25.457031 185.632812 25.15625 C 185.757812 24.859375 185.910156 24.574219 186.089844 24.300781 C 186.269531 24.03125 186.476562 23.78125 186.707031 23.550781 C 186.933594 23.324219 187.183594 23.117188 187.457031 22.9375 C 187.726562 22.757812 188.011719 22.605469 188.3125 22.480469 C 188.613281 22.355469 188.921875 22.261719 189.238281 22.199219 C 189.558594 22.132812 189.882812 22.101562 190.207031 22.101562 C 190.53125 22.101562 190.851562 22.132812 191.171875 22.199219 C 191.492188 22.261719 191.800781 22.355469 192.101562 22.480469 C 192.402344 22.601562 192.6875 22.753906 192.957031 22.9375 C 193.226562 23.117188 193.476562 23.320312 193.707031 23.550781 C 193.9375 23.78125 194.140625 24.03125 194.324219 24.300781 C 194.503906 24.570312 194.65625 24.855469 194.78125 25.15625 C 194.90625 25.457031 195 25.769531 195.0625 26.085938 C 195.125 26.40625 195.15625 26.726562 195.15625 27.050781 L 195.15625 39.367188 L 207.472656 39.367188 C 207.796875 39.367188 208.121094 39.402344 208.4375 39.464844 C 208.757812 39.527344 209.066406 39.621094 209.367188 39.746094 C 209.667969 39.871094 209.953125 40.023438 210.222656 40.203125 C 210.496094 40.382812 210.746094 40.589844 210.976562 40.820312 C 211.203125 41.050781 211.410156 41.300781 211.589844 41.570312 C 211.769531 41.839844 211.921875 42.125 212.046875 42.425781 C 212.171875 42.726562 212.265625 43.035156 212.328125 43.355469 C 212.394531 43.675781 212.425781 43.996094 212.425781 44.320312 Z M 212.425781 44.320312 " fill-opacity="1" fill-rule="nonzero"/><path fill="#000000" d="M 194.65625 122.304688 C 194.65625 123.667969 194.101562 124.910156 193.203125 125.804688 C 192.738281 126.269531 192.203125 126.628906 191.597656 126.878906 C 190.992188 127.128906 190.359375 127.253906 189.703125 127.25 L 177.390625 127.25 L 177.390625 139.570312 C 177.390625 142.304688 175.171875 144.515625 172.433594 144.515625 C 171.777344 144.519531 171.148438 144.394531 170.539062 144.144531 C 169.933594 143.894531 169.398438 143.535156 168.9375 143.070312 C 168.472656 142.605469 168.113281 142.070312 167.863281 141.464844 C 167.613281 140.859375 167.488281 140.226562 167.488281 139.570312 L 167.488281 127.25 L 155.167969 127.25 C 154.84375 127.25 154.523438 127.21875 154.203125 127.15625 C 153.886719 127.09375 153.578125 127 153.277344 126.875 C 152.976562 126.75 152.691406 126.597656 152.421875 126.417969 C 152.152344 126.238281 151.902344 126.03125 151.671875 125.800781 C 151.441406 125.574219 151.238281 125.324219 151.054688 125.054688 C 150.875 124.78125 150.722656 124.496094 150.597656 124.199219 C 150.476562 123.898438 150.382812 123.585938 150.316406 123.269531 C 150.253906 122.949219 150.222656 122.628906 150.222656 122.304688 C 150.222656 121.648438 150.347656 121.015625 150.597656 120.410156 C 150.847656 119.800781 151.207031 119.265625 151.671875 118.804688 C 152.132812 118.335938 152.667969 117.980469 153.273438 117.726562 C 153.882812 117.476562 154.511719 117.351562 155.167969 117.351562 L 167.488281 117.351562 L 167.488281 105.035156 C 167.488281 104.546875 167.558594 104.066406 167.703125 103.597656 C 167.84375 103.128906 168.050781 102.691406 168.320312 102.285156 C 168.59375 101.878906 168.917969 101.519531 169.296875 101.210938 C 169.675781 100.898438 170.089844 100.648438 170.542969 100.460938 C 170.996094 100.273438 171.464844 100.15625 171.953125 100.109375 C 172.441406 100.0625 172.921875 100.085938 173.402344 100.179688 C 173.882812 100.277344 174.339844 100.4375 174.769531 100.671875 C 175.203125 100.902344 175.59375 101.191406 175.9375 101.535156 C 176.402344 102 176.761719 102.535156 177.015625 103.140625 C 177.265625 103.746094 177.390625 104.378906 177.390625 105.035156 L 177.390625 117.351562 L 189.703125 117.351562 C 190.03125 117.351562 190.351562 117.382812 190.671875 117.449219 C 190.988281 117.511719 191.300781 117.605469 191.597656 117.730469 C 191.898438 117.855469 192.183594 118.007812 192.453125 118.1875 C 192.726562 118.367188 192.976562 118.574219 193.207031 118.804688 C 193.433594 119.035156 193.640625 119.285156 193.820312 119.554688 C 194 119.824219 194.152344 120.109375 194.277344 120.410156 C 194.402344 120.710938 194.496094 121.019531 194.558594 121.339844 C 194.625 121.65625 194.65625 121.980469 194.65625 122.304688 Z M 267.613281 100.085938 C 267.613281 101.453125 267.058594 102.691406 266.160156 103.585938 C 265.695312 104.050781 265.160156 104.410156 264.554688 104.660156 C 263.949219 104.910156 263.316406 105.039062 262.660156 105.035156 L 250.34375 105.035156 L 250.34375 117.355469 C 250.34375 117.679688 250.3125 118.003906 250.246094 118.320312 C 250.183594 118.640625 250.089844 118.949219 249.964844 119.25 C 249.839844 119.550781 249.6875 119.832031 249.507812 120.105469 C 249.328125 120.375 249.121094 120.625 248.890625 120.855469 C 248.664062 121.082031 248.414062 121.289062 248.140625 121.46875 C 247.871094 121.648438 247.585938 121.800781 247.285156 121.925781 C 246.984375 122.050781 246.675781 122.144531 246.359375 122.207031 C 246.039062 122.269531 245.71875 122.300781 245.390625 122.300781 C 244.734375 122.304688 244.105469 122.179688 243.496094 121.929688 C 242.890625 121.675781 242.355469 121.320312 241.894531 120.851562 C 241.425781 120.390625 241.070312 119.855469 240.816406 119.25 C 240.566406 118.644531 240.441406 118.011719 240.441406 117.355469 L 240.441406 105.035156 L 228.125 105.035156 C 227.636719 105.039062 227.15625 104.964844 226.6875 104.824219 C 226.21875 104.683594 225.78125 104.476562 225.375 104.203125 C 224.96875 103.933594 224.609375 103.609375 224.296875 103.230469 C 223.984375 102.851562 223.738281 102.433594 223.550781 101.984375 C 223.363281 101.53125 223.242188 101.0625 223.195312 100.574219 C 223.148438 100.085938 223.171875 99.601562 223.265625 99.121094 C 223.363281 98.640625 223.527344 98.1875 223.757812 97.753906 C 223.988281 97.320312 224.277344 96.933594 224.625 96.585938 C 225.085938 96.121094 225.625 95.765625 226.230469 95.511719 C 226.835938 95.261719 227.46875 95.136719 228.125 95.136719 L 240.441406 95.136719 L 240.441406 82.824219 C 240.441406 82.496094 240.472656 82.175781 240.535156 81.855469 C 240.597656 81.539062 240.695312 81.226562 240.816406 80.929688 C 240.941406 80.628906 241.09375 80.34375 241.273438 80.070312 C 241.457031 79.800781 241.660156 79.550781 241.890625 79.320312 C 242.121094 79.09375 242.371094 78.886719 242.640625 78.707031 C 242.910156 78.527344 243.195312 78.375 243.496094 78.25 C 243.796875 78.125 244.105469 78.03125 244.425781 77.96875 C 244.746094 77.902344 245.066406 77.871094 245.390625 77.871094 C 245.714844 77.871094 246.039062 77.902344 246.359375 77.96875 C 246.675781 78.03125 246.984375 78.125 247.285156 78.25 C 247.585938 78.375 247.871094 78.527344 248.140625 78.707031 C 248.414062 78.886719 248.664062 79.09375 248.890625 79.324219 C 249.121094 79.550781 249.328125 79.800781 249.507812 80.074219 C 249.6875 80.34375 249.839844 80.628906 249.964844 80.929688 C 250.089844 81.230469 250.183594 81.539062 250.246094 81.855469 C 250.3125 82.175781 250.34375 82.5 250.34375 82.824219 L 250.34375 95.136719 L 262.660156 95.136719 C 262.988281 95.136719 263.308594 95.167969 263.628906 95.234375 C 263.945312 95.296875 264.257812 95.390625 264.558594 95.515625 C 264.855469 95.640625 265.140625 95.792969 265.414062 95.972656 C 265.683594 96.152344 265.933594 96.359375 266.164062 96.585938 C 266.394531 96.816406 266.597656 97.066406 266.777344 97.335938 C 266.960938 97.609375 267.113281 97.894531 267.238281 98.191406 C 267.359375 98.492188 267.453125 98.804688 267.519531 99.121094 C 267.582031 99.441406 267.613281 99.761719 267.613281 100.085938 Z M 267.613281 100.085938 " fill-opacity="1" fill-rule="nonzero"/></svg>