<svg xmlns="http://www.w3.org/2000/svg" xmlns:xlink="http://www.w3.org/1999/xlink" width="400" zoomAndPan="magnify" viewBox="0 0 300 299.999988" height="400" preserveAspectRatio="xMidYMid meet" version="1.0"><path fill="#ffffff" d="M 212.589844 190.851562 C 183.601562 210.511719 143.449219 202.945312 123.304688 174.316406 C 103.164062 145.679688 109.613281 105.332031 137.917969 84.695312 C 138.355469 84.371094 138.738281 83.988281 139.050781 83.539062 C 139.367188 83.089844 139.605469 82.605469 139.757812 82.082031 C 139.910156 81.554688 139.976562 81.019531 139.957031 80.472656 C 139.933594 79.925781 139.824219 79.398438 139.628906 78.886719 C 139.429688 78.378906 139.15625 77.910156 138.808594 77.492188 C 138.457031 77.070312 138.050781 76.71875 137.582031 76.429688 C 137.117188 76.144531 136.617188 75.941406 136.082031 75.820312 C 135.546875 75.703125 135.011719 75.671875 134.464844 75.726562 C 127.335938 76.488281 120.410156 78.128906 113.699219 80.652344 C 106.984375 83.175781 100.691406 86.5 94.824219 90.625 C 56.707031 117.429688 47.707031 170.519531 74.515625 208.632812 C 101.324219 246.75 154.328125 256.214844 192.445312 229.40625 C 204.15625 221.167969 213.628906 210.011719 219.863281 197.128906 C 220.101562 196.636719 220.25 196.117188 220.320312 195.574219 C 220.386719 195.03125 220.363281 194.496094 220.25 193.957031 C 220.140625 193.421875 219.945312 192.917969 219.667969 192.445312 C 219.390625 191.972656 219.042969 191.5625 218.628906 191.203125 C 218.214844 190.847656 217.753906 190.566406 217.25 190.359375 C 216.742188 190.15625 216.21875 190.035156 215.671875 190.003906 C 215.125 189.972656 214.585938 190.027344 214.058594 190.171875 C 213.535156 190.316406 213.042969 190.542969 212.589844 190.851562 Z M 198.171875 64.238281 C 198.171875 64.492188 198.144531 64.738281 198.097656 64.984375 C 198.046875 65.230469 197.976562 65.472656 197.878906 65.699219 C 197.78125 65.933594 197.664062 66.152344 197.527344 66.363281 C 197.386719 66.574219 197.226562 66.765625 197.050781 66.945312 C 196.875 67.121094 196.679688 67.277344 196.46875 67.417969 C 196.261719 67.558594 196.042969 67.675781 195.808594 67.769531 C 195.578125 67.867188 195.339844 67.941406 195.089844 67.988281 C 194.847656 68.035156 194.597656 68.0625 194.34375 68.0625 L 184.832031 68.0625 L 184.832031 77.574219 C 184.832031 77.828125 184.808594 78.074219 184.757812 78.324219 C 184.710938 78.566406 184.636719 78.808594 184.542969 79.039062 C 184.445312 79.269531 184.328125 79.492188 184.183594 79.699219 C 184.046875 79.910156 183.890625 80.105469 183.710938 80.277344 C 183.535156 80.457031 183.339844 80.617188 183.132812 80.753906 C 182.925781 80.894531 182.703125 81.011719 182.472656 81.109375 C 182.238281 81.207031 182 81.277344 181.753906 81.324219 C 181.503906 81.375 181.257812 81.398438 181.007812 81.398438 C 180.753906 81.402344 180.507812 81.378906 180.257812 81.324219 C 180.015625 81.277344 179.773438 81.207031 179.542969 81.109375 C 179.3125 81.015625 179.089844 80.898438 178.878906 80.753906 C 178.671875 80.617188 178.480469 80.460938 178.300781 80.28125 C 178.121094 80.105469 177.964844 79.910156 177.828125 79.703125 C 177.683594 79.496094 177.566406 79.269531 177.472656 79.042969 C 177.378906 78.808594 177.304688 78.566406 177.253906 78.324219 C 177.207031 78.074219 177.179688 77.828125 177.179688 77.574219 L 177.179688 68.0625 L 167.667969 68.0625 C 167.417969 68.0625 167.167969 68.035156 166.921875 67.984375 C 166.675781 67.9375 166.4375 67.863281 166.203125 67.769531 C 165.972656 67.671875 165.75 67.554688 165.542969 67.414062 C 165.335938 67.277344 165.140625 67.117188 164.964844 66.941406 C 164.789062 66.761719 164.628906 66.570312 164.488281 66.363281 C 164.351562 66.152344 164.234375 65.933594 164.136719 65.699219 C 164.039062 65.46875 163.96875 65.230469 163.917969 64.984375 C 163.871094 64.738281 163.84375 64.488281 163.84375 64.238281 C 163.84375 63.179688 164.269531 62.226562 164.964844 61.535156 C 165.65625 60.839844 166.613281 60.410156 167.667969 60.410156 L 177.179688 60.410156 L 177.179688 50.898438 C 177.179688 50.644531 177.207031 50.398438 177.257812 50.152344 C 177.304688 49.90625 177.378906 49.664062 177.472656 49.433594 C 177.570312 49.203125 177.6875 48.984375 177.828125 48.773438 C 177.964844 48.5625 178.125 48.371094 178.304688 48.191406 C 178.480469 48.019531 178.671875 47.859375 178.882812 47.71875 C 179.089844 47.582031 179.3125 47.460938 179.542969 47.367188 C 179.777344 47.269531 180.015625 47.195312 180.257812 47.148438 C 180.507812 47.097656 180.757812 47.074219 181.007812 47.074219 C 181.257812 47.074219 181.503906 47.097656 181.753906 47.148438 C 182 47.195312 182.238281 47.269531 182.472656 47.367188 C 182.703125 47.460938 182.925781 47.578125 183.132812 47.71875 C 183.339844 47.859375 183.535156 48.015625 183.710938 48.191406 C 183.890625 48.371094 184.046875 48.5625 184.1875 48.773438 C 184.328125 48.980469 184.445312 49.199219 184.542969 49.433594 C 184.636719 49.664062 184.710938 49.90625 184.757812 50.152344 C 184.808594 50.398438 184.832031 50.644531 184.832031 50.898438 L 184.832031 60.410156 L 194.34375 60.410156 C 194.597656 60.410156 194.847656 60.4375 195.089844 60.488281 C 195.339844 60.535156 195.578125 60.605469 195.808594 60.703125 C 196.042969 60.800781 196.261719 60.917969 196.46875 61.058594 C 196.679688 61.195312 196.875 61.355469 197.050781 61.535156 C 197.226562 61.710938 197.386719 61.90625 197.527344 62.113281 C 197.664062 62.320312 197.78125 62.542969 197.878906 62.773438 C 197.976562 63.007812 198.046875 63.246094 198.097656 63.492188 C 198.148438 63.738281 198.171875 63.988281 198.171875 64.238281 Z M 198.171875 64.238281 " fill-opacity="1" fill-rule="nonzero"/><path fill="#ffffff" d="M 184.445312 124.480469 C 184.445312 125.535156 184.015625 126.492188 183.320312 127.183594 C 182.964844 127.542969 182.550781 127.820312 182.082031 128.015625 C 181.613281 128.207031 181.125 128.304688 180.617188 128.300781 L 171.105469 128.300781 L 171.105469 137.816406 C 171.105469 139.929688 169.394531 141.636719 167.277344 141.636719 C 166.769531 141.640625 166.285156 141.542969 165.8125 141.351562 C 165.347656 141.160156 164.933594 140.882812 164.578125 140.523438 C 164.21875 140.164062 163.941406 139.75 163.746094 139.28125 C 163.554688 138.8125 163.457031 138.324219 163.457031 137.816406 L 163.457031 128.300781 L 153.941406 128.300781 C 153.691406 128.300781 153.441406 128.277344 153.195312 128.226562 C 152.949219 128.179688 152.710938 128.109375 152.480469 128.011719 C 152.246094 127.914062 152.027344 127.796875 151.820312 127.65625 C 151.609375 127.519531 151.417969 127.359375 151.238281 127.179688 C 151.0625 127.007812 150.90625 126.8125 150.761719 126.605469 C 150.625 126.394531 150.507812 126.171875 150.410156 125.945312 C 150.316406 125.710938 150.242188 125.46875 150.191406 125.226562 C 150.144531 124.976562 150.121094 124.730469 150.121094 124.480469 C 150.121094 123.972656 150.214844 123.484375 150.410156 123.015625 C 150.601562 122.546875 150.878906 122.132812 151.238281 121.777344 C 151.59375 121.414062 152.007812 121.140625 152.476562 120.945312 C 152.949219 120.75 153.433594 120.652344 153.941406 120.652344 L 163.457031 120.652344 L 163.457031 111.140625 C 163.457031 110.761719 163.511719 110.390625 163.625 110.027344 C 163.730469 109.667969 163.890625 109.328125 164.101562 109.015625 C 164.3125 108.703125 164.5625 108.425781 164.855469 108.183594 C 165.148438 107.945312 165.46875 107.75 165.816406 107.605469 C 166.167969 107.460938 166.53125 107.371094 166.90625 107.335938 C 167.285156 107.296875 167.65625 107.316406 168.027344 107.390625 C 168.398438 107.464844 168.75 107.589844 169.082031 107.769531 C 169.417969 107.945312 169.71875 108.171875 169.984375 108.4375 C 170.34375 108.796875 170.621094 109.207031 170.816406 109.675781 C 171.011719 110.144531 171.105469 110.632812 171.105469 111.140625 L 171.105469 120.652344 L 180.617188 120.652344 C 180.871094 120.652344 181.121094 120.679688 181.367188 120.730469 C 181.609375 120.777344 181.851562 120.851562 182.082031 120.945312 C 182.3125 121.042969 182.535156 121.160156 182.742188 121.300781 C 182.953125 121.4375 183.148438 121.597656 183.324219 121.777344 C 183.5 121.953125 183.660156 122.148438 183.800781 122.355469 C 183.9375 122.5625 184.054688 122.785156 184.152344 123.015625 C 184.25 123.25 184.320312 123.488281 184.371094 123.734375 C 184.421875 123.980469 184.445312 124.230469 184.445312 124.480469 Z M 240.804688 107.316406 C 240.804688 108.371094 240.375 109.328125 239.679688 110.019531 C 239.324219 110.378906 238.910156 110.65625 238.441406 110.851562 C 237.972656 111.042969 237.484375 111.144531 236.976562 111.140625 L 227.464844 111.140625 L 227.464844 120.65625 C 227.464844 120.90625 227.4375 121.15625 227.386719 121.402344 C 227.339844 121.648438 227.265625 121.886719 227.171875 122.121094 C 227.074219 122.351562 226.957031 122.570312 226.816406 122.78125 C 226.679688 122.988281 226.519531 123.183594 226.339844 123.359375 C 226.164062 123.535156 225.972656 123.695312 225.761719 123.835938 C 225.554688 123.972656 225.332031 124.089844 225.101562 124.1875 C 224.867188 124.285156 224.628906 124.355469 224.386719 124.40625 C 224.136719 124.453125 223.890625 124.476562 223.636719 124.476562 C 223.128906 124.480469 222.644531 124.382812 222.171875 124.191406 C 221.707031 123.996094 221.292969 123.71875 220.9375 123.359375 C 220.574219 123 220.300781 122.589844 220.101562 122.121094 C 219.910156 121.652344 219.8125 121.164062 219.8125 120.65625 L 219.8125 111.140625 L 210.300781 111.140625 C 209.921875 111.144531 209.550781 111.085938 209.1875 110.976562 C 208.828125 110.867188 208.488281 110.707031 208.175781 110.496094 C 207.859375 110.289062 207.582031 110.039062 207.34375 109.746094 C 207.101562 109.453125 206.910156 109.128906 206.765625 108.78125 C 206.621094 108.433594 206.527344 108.070312 206.492188 107.695312 C 206.453125 107.316406 206.472656 106.941406 206.546875 106.570312 C 206.621094 106.199219 206.746094 105.851562 206.925781 105.515625 C 207.105469 105.179688 207.328125 104.882812 207.59375 104.613281 C 207.953125 104.253906 208.367188 103.980469 208.835938 103.78125 C 209.304688 103.589844 209.792969 103.492188 210.300781 103.492188 L 219.8125 103.492188 L 219.8125 93.980469 C 219.8125 93.726562 219.839844 93.480469 219.886719 93.234375 C 219.933594 92.988281 220.011719 92.746094 220.101562 92.519531 C 220.199219 92.285156 220.316406 92.066406 220.457031 91.855469 C 220.597656 91.644531 220.753906 91.453125 220.933594 91.273438 C 221.113281 91.101562 221.304688 90.941406 221.511719 90.800781 C 221.722656 90.664062 221.941406 90.542969 222.171875 90.449219 C 222.40625 90.351562 222.644531 90.277344 222.890625 90.230469 C 223.140625 90.179688 223.386719 90.15625 223.636719 90.15625 C 223.886719 90.15625 224.136719 90.179688 224.386719 90.230469 C 224.628906 90.277344 224.867188 90.351562 225.101562 90.449219 C 225.332031 90.542969 225.554688 90.664062 225.761719 90.800781 C 225.972656 90.941406 226.164062 91.101562 226.339844 91.277344 C 226.519531 91.453125 226.679688 91.644531 226.816406 91.855469 C 226.957031 92.066406 227.074219 92.285156 227.171875 92.519531 C 227.265625 92.75 227.339844 92.988281 227.386719 93.234375 C 227.4375 93.480469 227.464844 93.730469 227.464844 93.980469 L 227.464844 103.492188 L 236.976562 103.492188 C 237.230469 103.492188 237.480469 103.515625 237.726562 103.570312 C 237.96875 103.617188 238.210938 103.6875 238.445312 103.785156 C 238.671875 103.882812 238.894531 104 239.105469 104.140625 C 239.3125 104.277344 239.507812 104.4375 239.683594 104.613281 C 239.863281 104.789062 240.019531 104.984375 240.160156 105.191406 C 240.300781 105.402344 240.417969 105.625 240.515625 105.851562 C 240.609375 106.085938 240.679688 106.328125 240.730469 106.570312 C 240.78125 106.820312 240.804688 107.066406 240.804688 107.316406 Z M 240.804688 107.316406 " fill-opacity="1" fill-rule="nonzero"/></svg>